<svg><defs><symbol id="allage" viewBox="0 0 24 24"><path d="m5.353 6.81 3.575 3.594v10.2c0 .376.132.708.397.974.287.289.595.422.993.422.375 0 .684-.133.971-.422.264-.266.397-.598.397-.975v-4.745h.795v4.745c0 .377.131.71.397.975.287.289.595.422.97.422.397 0 .707-.133.993-.422a1.34 1.34 0 0 0 .397-.975v-10.2l3.576-3.592c.243-.243.353-.532.353-.843 0-.332-.11-.62-.353-.841a1.071 1.071 0 0 0-.817-.356c-.33 0-.618.112-.839.356l-2.802 2.815H9.81L7.008 5.127a1.082 1.082 0 0 0-.84-.356c-.308 0-.595.112-.815.356-.243.22-.353.51-.353.841 0 .311.11.6.353.843zm6.73.733c.772 0 1.412-.266 1.964-.82.53-.533.794-1.176.794-1.952s-.264-1.419-.794-1.951c-.552-.554-1.192-.82-1.964-.82s-1.412.266-1.941.82c-.553.532-.817 1.175-.817 1.95 0 .777.264 1.42.817 1.953.529.554 1.169.82 1.941.82z" fill="currentColor" fill-rule="evenodd"/></symbol><symbol id="audible" viewBox="0 0 24 24"><path d="M2.913 15.935h3.753l.099.068 4.975 3.426c.468.277.604.24.696.042a.757.757 0 0 0 .06-.203V6.154a.734.734 0 0 0-.062-.236c-.093-.204-.229-.241-.674.022l-5.194 3.5H2.913c-.09 0-.144.05-.144.096v6.337c0 .03.039.06.144.06zm10.22-10.338c.088.191.123.374.132.534v13.16a1.42 1.42 0 0 1-.132.505c-.29.623-.937.796-1.806.281l-4.9-3.373H2.913c-.499 0-.913-.336-.913-.83V9.537c0-.49.415-.865.913-.865h3.418l5.018-3.382c.847-.502 1.495-.322 1.784.307zm5.936.928c1.77 1.564 2.793 3.718 2.793 6.025 0 2.308-1.022 4.462-2.793 6.026l-.51-.577c1.61-1.421 2.534-3.368 2.534-5.449 0-2.08-.924-4.027-2.533-5.449zm-1.804 1.87c1.237 1.07 1.955 2.558 1.955 4.155 0 1.598-.718 3.086-1.955 4.155l-.503-.582c1.072-.926 1.69-2.205 1.69-3.573 0-1.368-.618-2.646-1.69-3.573zM15.27 10.26c.707.572 1.124 1.399 1.124 2.29 0 .892-.417 1.718-1.124 2.29l-.484-.598c.532-.43.839-1.039.839-1.692s-.307-1.262-.839-1.692z" fill="currentColor"/></symbol><symbol id="bell" viewBox="0 0 24 24"><path d="M18 9.25V12l1.561 4.684A1 1 0 0 1 18.612 18H5.389a1 1 0 0 1-.949-1.316L6 12V9.25C6 5.798 8.686 3 12 3s6 2.798 6 6.25zM12 21a3.001 3.001 0 0 1-2.829-2h5.659A3.001 3.001 0 0 1 12 21z" fill="currentColor" fill-rule="evenodd"/></symbol><symbol id="block" viewBox="0 0 24 24"><path d="M19.083 11.994a7 7 0 0 0-1.132-3.83l-9.818 9.774A7.088 7.088 0 0 0 12 19.093c3.906 0 7.083-3.18 7.083-7.1zm-13.007 3.88 9.83-9.786A6.964 6.964 0 0 0 12 4.908c-3.906 0-7.083 3.179-7.083 7.086 0 1.44.43 2.764 1.159 3.88zM22 11.994C22 17.522 17.52 22 12 22S2 17.522 2 11.994C2 6.478 6.48 2 12 2s10 4.478 10 9.994z" fill="currentColor" fill-rule="evenodd"/></symbol><symbol id="bricks-off" viewBox="0 0 24 24"><path d="M21.992 16.5c0-.592-.48-1.071-1.071-1.071H3.079c-.592 0-1.071.48-1.071 1.071v2.143c0 .591.48 1.071 1.07 1.071h17.843c.591 0 1.07-.48 1.07-1.071V16.5zm0-5.714c0-.592-.48-1.072-1.071-1.072H3.087c-.591 0-1.07.48-1.07 1.072v2.143A1.07 1.07 0 0 0 3.087 14h17.834c.591 0 1.07-.48 1.07-1.071v-2.143zm0-5.715c0-.591-.48-1.071-1.071-1.071H3.063c-.592 0-1.071.48-1.071 1.071v2.143c0 .592.48 1.072 1.07 1.072h17.859c.591 0 1.07-.48 1.07-1.072V5.071z" fill="currentColor" fill-rule="evenodd"/></symbol><symbol id="bricks-on" viewBox="0 0 24 24"><path d="M7.714 16.5c0-.592-.48-1.071-1.071-1.071H3.07c-.59 0-1.07.48-1.07 1.071v2.143c0 .591.48 1.071 1.071 1.071h3.572c.591 0 1.071-.48 1.071-1.071V16.5zm0-11.429C7.714 4.48 7.234 4 6.643 4H3.07C2.48 4 2 4.48 2 5.071v7.85c0 .592.48 1.072 1.071 1.072h3.572c.591 0 1.071-.48 1.071-1.072v-7.85zm7.143 0c0-.591-.48-1.071-1.071-1.071h-3.572c-.591 0-1.071.48-1.071 1.071v13.566c0 .591.48 1.071 1.071 1.071h3.572c.591 0 1.071-.48 1.071-1.071V5.07zM22 10.786c0-.592-.48-1.072-1.071-1.072h-3.572c-.591 0-1.071.48-1.071 1.072V18.6c0 .591.48 1.071 1.071 1.071h3.572c.591 0 1.071-.48 1.071-1.071v-7.814zm0-5.715C22 4.48 21.52 4 20.929 4h-3.572c-.591 0-1.071.48-1.071 1.071v2.143c0 .592.48 1.072 1.071 1.072h3.572c.591 0 1.071-.48 1.071-1.072V5.071z" fill="currentColor" fill-rule="evenodd"/></symbol><symbol id="bucket" viewBox="0 0 24 24"><path d="M20.91 13.106c-.53 1.018-1.631 1.62-2.96 1.768V7.352c2.665 1.788 3.698 4.336 2.96 5.754zM9.974 5.482c-4.403 0-6.977-.847-7.126-1.297v-.022h-.01c.083-.448 2.671-1.319 7.136-1.319 4.467 0 7.057.872 7.135 1.317-.078.448-2.668 1.32-7.135 1.32zM7.027 8.468h-.014l.014.448c-.008.564-.61.715-.967.715-.359 0-.967-.153-.967-.714l.028-.449-.868.015.002 2.436c0 .445-.442.564-.704.564-.073 0-.712-.016-.712-.579l.009-5.674c.947.512 2.562.806 4.18.958v2.28zm2.945 1.337a.26.26 0 0 1-.266-.253.26.26 0 0 1 .266-.253.26.26 0 0 1 .266.253.26.26 0 0 1-.266.253zm7.977-3.451V4.163C17.95 2.456 12.936 2 9.975 2 7.012 2 2 2.456 2 4.163c0 .037.005.073.01.109L2 10.904c0 .934.78 1.423 1.551 1.423.767 0 1.543-.484 1.543-1.408v-.669c.953.489 2.411.174 2.716-.938h.057V6.255c.75.05 1.476.07 2.108.07 2.216 0 5.582-.255 7.135-1.099v9.685c-1.02-.03-2.123-.303-3.184-.84-1.473-.744-2.813-2.174-3.392-3.58.323-.192.543-.539.543-.94 0-.604-.496-1.096-1.105-1.096-.61 0-1.105.492-1.105 1.097 0 .502.344.922.808 1.051.612 1.673 2.135 3.345 3.875 4.223 1.179.595 2.41.892 3.56.917v3.518c0 .772-2.779 1.895-7.134 1.895-4.354 0-7.133-1.123-7.133-1.895v-5.972h-.84v5.972C2.004 21.059 6.016 22 9.977 22c3.962 0 7.973-.941 7.973-2.74v-3.546c1.645-.164 3.032-.926 3.704-2.216 1.217-2.336-.948-5.477-3.704-7.144z" fill="currentColor" fill-rule="evenodd"/></symbol><symbol id="camera" viewBox="0 0 24 24"><path d="M21 18a1 1 0 0 1-1 1H4c-.551 0-1-.448-1-1V9c0-.551.449-1 1-1h16c.552 0 1 .449 1 1v9zM8.5 5h3.994c.142.003 1.287.117 1.469 2H7.037C7.218 5.117 8.364 5.003 8.5 5zM20 7h-5.022c-.229-2.958-2.455-3-2.478-3h-4c-.023 0-2.249.042-2.477 3H4c-1.103 0-2 .897-2 2v9c0 1.103.897 2 2 2h16c1.103 0 2-.897 2-2V9c0-1.103-.897-2-2-2zm-9.5 10C8.57 17 7 15.43 7 13.5S8.57 10 10.5 10s3.5 1.57 3.5 3.5-1.57 3.5-3.5 3.5m0-8A4.505 4.505 0 0 0 6 13.5c0 2.481 2.019 4.5 4.5 4.5s4.5-2.019 4.5-4.5S12.981 9 10.5 9m0 2A2.503 2.503 0 0 0 8 13.5a.5.5 0 0 0 1 0c0-.827.673-1.5 1.5-1.5a.5.5 0 0 0 0-1m8 0a.5.5 0 1 1 .002-1.002A.5.5 0 0 1 18.5 11m0-2c-.827 0-1.5.673-1.5 1.5s.673 1.5 1.5 1.5 1.5-.673 1.5-1.5S19.327 9 18.5 9" fill="currentColor" fill-rule="evenodd"/></symbol><symbol id="chevron-down" viewBox="0 0 24 24"><path d="m12 14.586 7.293-7.293a.999.999 0 1 1 1.414 1.414l-8 8a.999.999 0 0 1-1.414 0l-8-8a.997.997 0 0 1 0-1.414.999.999 0 0 1 1.414 0L12 14.586z" fill="currentColor" fill-rule="evenodd"/></symbol><symbol id="chevron-left" viewBox="0 0 24 24"><path d="m9.414 12 7.293-7.293a.999.999 0 1 0-1.414-1.414l-8 8a.999.999 0 0 0 0 1.414l8 8a.997.997 0 0 0 1.414 0 .999.999 0 0 0 0-1.414L9.414 12z" fill="currentColor" fill-rule="evenodd"/></symbol><symbol id="chevron-right" viewBox="0 0 24 24"><path d="M14.586 12 7.293 4.707a.999.999 0 1 1 1.414-1.414l8 8a.999.999 0 0 1 0 1.414l-8 8a.997.997 0 0 1-1.414 0 .999.999 0 0 1 0-1.414L14.586 12z" fill="currentColor" fill-rule="evenodd"/></symbol><symbol id="chevron-up" viewBox="0 0 24 24"><path d="m12 9.414-7.293 7.293a.999.999 0 1 1-1.414-1.414l8-8a.999.999 0 0 1 1.414 0l8 8a.997.997 0 0 1 0 1.414.999.999 0 0 1-1.414 0L12 9.414z" fill="currentColor" fill-rule="evenodd"/></symbol><symbol id="circle" viewBox="0 0 24 24"><path d="M12 2C6.477 2 2 6.477 2 12s4.477 10 10 10 10-4.477 10-10S17.523 2 12 2z" fill="currentColor" fill-rule="evenodd"/></symbol><symbol id="clock" viewBox="0 0 24 24"><path d="M12 22.5C6.201 22.5 1.5 17.799 1.5 12S6.201 1.5 12 1.5 22.5 6.201 22.5 12 17.799 22.5 12 22.5zm0-1a9.5 9.5 0 1 0 0-19 9.5 9.5 0 0 0 0 19zm3.354-6.854a.5.5 0 0 1-.708.708l-3-3A.5.5 0 0 1 11.5 12V6a.5.5 0 1 1 1 0v5.793l2.854 2.853z" fill="currentColor"/></symbol><symbol id="close" viewBox="0 0 24 24"><path d="m13.164 11.75 6.043-6.043a.999.999 0 1 0-1.414-1.414l-6.043 6.043-6.043-6.043a.999.999 0 1 0-1.414 1.414l6.043 6.043-6.043 6.043a.999.999 0 1 0 1.414 1.414l6.043-6.043 6.043 6.043a.997.997 0 0 0 1.414 0 .999.999 0 0 0 0-1.414l-6.043-6.043z" fill="currentColor" fill-rule="evenodd"/></symbol><symbol id="comment-o" viewBox="0 0 24 24"><path d="M14.899 16.298h-1.953a.407.407 0 0 0-.265.099l-4.973 4.278v-3.942a.418.418 0 0 0-.317-.41c-2.245-.537-4.567-3.202-4.567-6.733 0-3.595 2.746-6.749 5.876-6.749h6.199c3.096 0 5.713 3.08 5.713 6.728 0 3.648-2.617 6.729-5.713 6.729m0-14.298H8.7C5.069 2 2 5.476 2 9.59c0 3.784 2.43 6.69 4.884 7.463v4.526a.42.42 0 0 0 .412.421c.096 0 .19-.034.267-.1l5.533-4.761H14.9c3.543 0 6.537-3.466 6.537-7.57C21.436 5.466 18.442 2 14.899 2" fill="currentColor" fill-rule="evenodd"/></symbol><symbol id="comment" viewBox="0 0 24 24"><path d="M14.899 2H8.7C5.069 2 2 5.476 2 9.59c0 3.784 2.43 6.69 4.884 7.463v4.526a.42.42 0 0 0 .412.421c.096 0 .19-.034.267-.1l5.533-4.761H14.9c3.543 0 6.537-3.466 6.537-7.57C21.436 5.466 18.442 2 14.899 2" fill="currentColor" fill-rule="evenodd"/></symbol><symbol id="crop" viewBox="0 0 24 24"><path d="M6 2v4H2v.999h4V18h11.001v4h1v-4H22v-1.001h-3.999V6.707l3.853-3.854-.707-.706L17.293 6H7.001V2H6zm1.001 4.999h9.292l-9.292 9.294V6.999zm10 .708v9.292H7.707l9.294-9.292z" fill="currentColor" fill-rule="evenodd"/></symbol><symbol id="download" viewBox="0 0 24 24"><path d="M15.333 13.333A.33.33 0 0 0 15 13h-2.333V9.333A.343.343 0 0 0 12.333 9h-2a.343.343 0 0 0-.333.333V13H7.667a.336.336 0 0 0-.334.333.35.35 0 0 0 .094.24l3.667 3.667a.33.33 0 0 0 .24.093.348.348 0 0 0 .239-.093l3.656-3.657a.384.384 0 0 0 .104-.25zM22 15.667c0 2.208-1.792 4-4 4H6.667A4.672 4.672 0 0 1 2 15a4.654 4.654 0 0 1 2.688-4.219c-.01-.156-.021-.302-.021-.448A5.33 5.33 0 0 1 10 5a5.342 5.342 0 0 1 4.938 3.313 2.636 2.636 0 0 1 1.729-.646 2.672 2.672 0 0 1 2.666 2.666c0 .51-.145 1.01-.427 1.438A4.009 4.009 0 0 1 22 15.667z" fill="currentColor" fill-rule="evenodd"/></symbol><symbol id="draw-mode" viewBox="0 0 24 24"><path d="M21.72 6.405 11.49 16.679c-.12.125-.674.36-2.461 1.088l-.076.031c-.856.349-2.787 1.125-2.393.966a.965.965 0 0 1-1.25-1.256c-.16.399.614-1.546.96-2.404l.031-.077c.712-1.762.957-2.344 1.08-2.469l5.115-5.136 3.518-3.533 1.597-1.604a.955.955 0 0 1 1.361-.002l2.75 2.76a.97.97 0 0 1-.001 1.36zm-.592-.595a.125.125 0 0 0 .034-.086.129.129 0 0 0-.036-.088L18.38 2.878a.123.123 0 0 0-.175 0l-1.599 1.606-3.517 3.533-5.117 5.138c.013-.013-.464 1.124-.894 2.188l-.031.077c-.346.856-1.12 2.8-.96 2.404a.123.123 0 0 0 .16.16c-.393.159 1.537-.618 2.391-.966l.076-.03c1.032-.421 2.192-.913 2.179-.899l10.236-10.28zM6.318 16.559l1.19 1.194-.593.595-1.19-1.194.593-.595zM18.777 5.63l.592.595-8.858 8.885.973.979-.592.595-3.513-3.529.592-.595 1.947 1.956 8.859-8.886zm-1.696 7.114v7.573c0 .63-.142.842-.547.842H3.676c-.51 0-.838-.33-.838-.842V7.491c0-.456.259-.637.925-.637h7.453v-.841H3.763C2.686 6.013 2 6.49 2 7.49v12.826C2 21.293 2.704 22 3.676 22h12.858c.954 0 1.385-.643 1.385-1.683v-7.573h-.838z" fill="currentColor"/></symbol><symbol id="draw" viewBox="0 0 24 24"><path d="M21.487 7.447 9.061 19.893l-.296.298-.1-.1c-.346.13-1.029.37-2.455.871l-1.922.673-.62.216-.214.074c-.84.344-1.713-.562-1.382-1.36l.083-.234.22-.617c.226-.64.453-1.278.667-1.874a154.9 154.9 0 0 1 .897-2.484l-.1-.099.296-.296L16.561 2.513a1.75 1.75 0 0 1 2.476 0l2.45 2.455a1.754 1.754 0 0 1 0 2.479zM3.613 20.98l-.59-.59c-.02.06-.043.12-.078.221l-.09.254c-.057.137.14.34.304.274l.234-.082.22-.077zm4.156-1.46.24-.087-3.417-3.423-.09.242-.658 1.83-.014.04c-.16.445-.327.917-.496 1.392l1.158 1.16 1.4-.49.04-.015c.75-.264 1.376-.484 1.837-.65zM20.895 5.56l-2.45-2.453a.91.91 0 0 0-1.29 0l-12.13 12.15 2.03 2.033L16.9 7.429l.592.594-9.845 9.861 1.117 1.12 12.13-12.15a.914.914 0 0 0 0-1.293z" fill="currentColor" fill-rule="evenodd"/></symbol><symbol id="drawr" viewBox="0 0 24 24"><path d="M18.94 17.156c0-2.042-.009-5.511-.01-6.52.04-.69.034-1.356-.017-1.977-.19-2.303-1.153-4.916-3.538-6.106-2.362-1.179-5.15-.309-6.6 1.077-.214.17-.382.386-.491.631a1.7 1.7 0 0 0 .894 2.261c.884.383 1.918-.01 2.308-.876a1.697 1.697 0 0 0-.782-2.205c1.532.171 2.553 1.175 2.594 2.005.056 1.15-.769 2.396-3.957 2.558-3.188.162-5.584 1.412-6.795 4.102-1.635 3.627.614 7.76 3.956 9.204 2.749 1.19 5.778.795 8.027-.833 1.535 2.25 7.634 2.149 8.471-1.258-2.403 1.55-4.06-.948-4.06-2.063zm-6.324-.84a4.499 4.499 0 1 1-8.231-3.633 4.499 4.499 0 0 1 8.231 3.634z" fill="currentColor"/></symbol><symbol id="ellipsis" viewBox="0 0 24 24"><path d="M6.966 12.5c0-1.38-1.111-2.5-2.483-2.5A2.492 2.492 0 0 0 2 12.5C2 13.88 3.112 15 4.483 15a2.492 2.492 0 0 0 2.483-2.5zm-3.758 0a1.28 1.28 0 0 1 1.275-1.284A1.28 1.28 0 0 1 5.758 12.5a1.28 1.28 0 0 1-1.275 1.284A1.28 1.28 0 0 1 3.208 12.5zm11.275 0c0-1.38-1.112-2.5-2.483-2.5a2.492 2.492 0 0 0-2.483 2.5c0 1.38 1.112 2.5 2.483 2.5a2.492 2.492 0 0 0 2.483-2.5zm-3.758 0c0-.709.57-1.284 1.275-1.284a1.28 1.28 0 0 1 1.275 1.284A1.28 1.28 0 0 1 12 13.784a1.28 1.28 0 0 1-1.275-1.284zM22 12.5c0-1.38-1.112-2.5-2.483-2.5a2.492 2.492 0 0 0-2.483 2.5c0 1.38 1.111 2.5 2.483 2.5A2.492 2.492 0 0 0 22 12.5zm-3.758 0c0-.709.57-1.284 1.275-1.284a1.28 1.28 0 0 1 1.275 1.284 1.28 1.28 0 0 1-1.275 1.284 1.28 1.28 0 0 1-1.275-1.284z" fill="currentColor"/></symbol><symbol id="eraser" viewBox="0 0 24 24"><path d="m8.988 20.793-5.781-5.781 2.537-2.537 5.78 5.781-2.536 2.537zM21.854 8.634l-6.49-6.487a.499.499 0 0 0-.706 0L2.147 14.658a.499.499 0 0 0 0 .707l6.487 6.489a.502.502 0 0 0 .708 0L21.854 9.341a.5.5 0 0 0 0-.707z" fill="currentColor" fill-rule="evenodd"/></symbol><symbol id="export-pixiv" viewBox="0 0 24 24"><path d="M9 19a.5.5 0 1 1 0 1H5v1h14v-1h-4a.5.5 0 1 1 0-1h4.5a.5.5 0 0 1 .5.5v2a.5.5 0 0 1-.5.5h-15a.5.5 0 0 1-.5-.5v-2a.5.5 0 0 1 .5-.5zm3-4.491a.49.49 0 0 1 .348.144l2.499 2.5a.49.49 0 1 1-.694.695L12.5 16.194V19.5a.5.5 0 1 1-1 0v-3.305l-1.652 1.652a.492.492 0 0 1-.695-.694l2.5-2.5a.491.491 0 0 1 .348-.144zM17.5 2c.825 0 1.5.675 1.5 1.5v9c0 .825-.675 1.5-1.5 1.5H9.111c.022-.194-.111-.32-.611-.385v-1.896s1.541.588 3.157.588c1.419 0 2.754-.423 3.714-1.185.961-.758 1.582-1.89 1.578-3.184a4.263 4.263 0 0 0-1.475-3.25c-.935-.818-2.24-1.29-3.763-1.29-3.97 0-6.659 3.063-6.659 3.063l.788 1.207s.473.035.25-.676c.192-.363.41-.852 1.41-1.418v8.041c-.5.072-.774.194-.748.385H6.5c-.825 0-1.5-.675-1.5-1.5v-9C5 2.675 5.675 2 6.5 2zm-5.977 2.077c1.207 0 2.196.456 2.836 1.147.64.696.988 1.62.992 2.694a3.547 3.547 0 0 1-1.063 2.57c-.664.655-1.65 1.07-2.765 1.069-1.243 0-2.023-.24-3.023-.58V4.944c1-.538 2.03-.87 3.023-.867z" fill="currentColor" fill-rule="evenodd"/></symbol><symbol id="eyedropper" viewBox="0 0 24 24"><path d="M5.624 20.624c-.333.332-1.76.535-2.293 0-.535-.534-.332-1.96 0-2.293l8.647-8.646 2.292 2.293-8.646 8.646zm15.707-18c-.956-.956-3.01-.698-3.707 0L14.478 5.77 13.33 4.624c-.653-.653-2.228-.979-3.207 0-.98.979-.654 2.553 0 3.207l1.146 1.147-8.646 8.646c-.697.697-.956 2.751 0 3.707.44.441 1.116.624 1.784.624.779 0 1.548-.249 1.923-.624l8.647-8.646 1.146 1.146c.358.358.994.618 1.656.618.545 0 1.109-.176 1.55-.618.98-.979.655-2.553 0-3.207l-1.145-1.146 3.146-3.147c.697-.697.956-2.751 0-3.707z" fill="currentColor" fill-rule="evenodd"/></symbol><symbol id="eyes" viewBox="0 0 40 40"><circle cx="20" cy="20" r="20" fill="#373F51" fill-opacity=".12"/><path d="M14.391 13.334c-2.792 0-5.057 2.73-5.057 6.102 0 3.372 2.288 6.102 5.057 6.102 2.769 0 5.065-2.73 5.065-6.102 0-3.372-2.265-6.102-5.065-6.102zm1.663 7.17a2.517 2.517 0 1 1 2.052-2.48 2.289 2.289 0 0 1-2.052 2.48zm10.534-7.17c-2.792 0-5.057 2.73-5.057 6.102 0 3.372 2.288 6.102 5.057 6.102 2.77 0 5.065-2.73 5.065-6.102 0-3.372-2.265-6.102-5.065-6.102zm1.663 7.17a2.517 2.517 0 1 1 2.052-2.48 2.288 2.288 0 0 1-2.052 2.48z" fill="#fff"/></symbol><symbol id="facebook" viewBox="0 0 24 24"><path d="M22 4.083v15.834c0 1.15-.933 2.083-2.083 2.083h-4.584v-7.5h2.5l.625-3.333h-3.125l.079-1.706c0-.829.218-1.309 1.335-1.309h1.77l.4-2.982s-1.895-.253-3.01-.253c-2.507 0-3.958 1.671-3.958 4.245L12 11.167H9.5V14.5H12V22H4.083A2.083 2.083 0 0 1 2 19.917V4.083C2 2.933 2.933 2 4.083 2h15.834C21.067 2 22 2.933 22 4.083" fill="currentColor" fill-rule="evenodd"/></symbol><symbol id="factory" viewBox="0 0 24 24"><path d="M4 2h16a2 2 0 0 1 2 2v16a2 2 0 0 1-2 2H4a2 2 0 0 1-2-2V4a2 2 0 0 1 2-2zm11.75 2.5H9.5v11.25H12V12h2.5V9.5H12V7h3.75V4.5zm3.75 5v1.25H17V9.5h2.5zM17 11.375v1.25h2.5v-1.25H17zm0 5.943 2.5-2.143V13.25H17v4.068zm3.75 3.432v-5l-5.833 5h5.833zm-11.667 0h5.834v-5l-5.834 5zm0 0v-5l-5.833 5h5.833z" fill="currentColor" fill-rule="evenodd"/></symbol><symbol id="fanbox" viewBox="0 0 24 24"><path d="M11.799 12.489c.523 0 .994.112 1.413.338.42.225.774.544 1.065.956.29.412.514.91.672 1.492.158.582.236 1.23.236 1.944a7.58 7.58 0 0 1-.236 1.957c-.158.59-.382 1.094-.672 1.51-.291.417-.646.74-1.065.97-.42.23-.89.344-1.413.344s-.994-.115-1.413-.344a3.113 3.113 0 0 1-1.065-.97c-.29-.416-.515-.92-.672-1.51a7.58 7.58 0 0 1-.237-1.957c0-.714.077-1.362.23-1.944.154-.583.376-1.08.667-1.492.29-.412.645-.731 1.064-.956a2.96 2.96 0 0 1 1.426-.338zm-7.038.12c.286 0 .59.03.91.092.321.061.614.178.879.349.264.171.485.415.663.73.178.317.266.725.266 1.226 0 .553-.11.994-.331 1.323-.221.33-.492.569-.813.718.173.07.347.15.52.263.174.114.33.261.468.441.139.18.252.398.338.652.087.255.13.545.13.87 0 .5-.08.92-.24 1.257-.16.338-.37.61-.63.817-.26.206-.554.355-.879.447a3.584 3.584 0 0 1-.982.139H2.004v-9.324zm12.635 0 1.132 2.831 1.144-2.831h2.133l-2.094 4.425L22 21.933h-2.25l-1.274-3.082-1.262 3.082h-2.172l2.263-4.886-2.08-4.438h2.171zm-12.7 5.307h-.754v2.265h.78c.304 0 .562-.092.774-.276.213-.185.319-.461.319-.83a1.3 1.3 0 0 0-.098-.533.99.99 0 0 0-.26-.356 1.07 1.07 0 0 0-.364-.204 1.273 1.273 0 0 0-.397-.066zm7.103-3.451a.903.903 0 0 0-.592.21c-.17.14-.31.334-.423.58a3.425 3.425 0 0 0-.249.874c-.054.336-.08.699-.08 1.09 0 .39.026.756.08 1.096.054.34.137.634.249.88.112.247.253.442.423.587a.89.89 0 0 0 .592.216.864.864 0 0 0 .585-.216 1.69 1.69 0 0 0 .417-.587c.112-.246.197-.54.255-.88a6.52 6.52 0 0 0 .087-1.096 6.4 6.4 0 0 0-.087-1.09 3.595 3.595 0 0 0-.255-.874 1.623 1.623 0 0 0-.417-.58.878.878 0 0 0-.585-.21zm-7.155-.105h-.702v2.015h.715c.252 0 .48-.079.683-.237.204-.158.306-.421.306-.79 0-.36-.1-.615-.3-.764a1.14 1.14 0 0 0-.702-.224zM7.39 2v1.91H4.094v1.896h2.74V7.61H4.106v3.714H2V2h5.39zm4.785 0 2.224 9.324h-2.172l-.377-1.699H9.782l-.377 1.699H7.324L9.561 2h2.614zm5.319 0 2.12 5.755h.039L19.613 2h1.795v9.324h-2.224l-2.132-5.676h-.04l.053 5.676h-1.86V2h2.289zm-6.646 2.028h-.052l-.78 3.964h1.574l-.742-3.964z" fill="currentColor" fill-rule="evenodd"/></symbol><symbol id="filter" viewBox="0 0 24 24"><path d="M21.928 2.554a.894.894 0 0 1-.198.994l-7.003 7.003V21.09a.92.92 0 0 1-.554.838 1.054 1.054 0 0 1-.355.07.849.849 0 0 1-.64-.269l-3.635-3.636a.904.904 0 0 1-.27-.64v-6.902L2.27 3.548a.894.894 0 0 1-.198-.994A.92.92 0 0 1 2.91 2h18.18a.92.92 0 0 1 .838.554z" fill="currentColor" fill-rule="evenodd"/></symbol><symbol id="follow" viewBox="0 0 24 24"><path d="M17.7 13.4c.267 0 .484.227.484.506v3.257h3.32l.496.484a.49.49 0 0 1-.497.483h-3.32v3.364c0 .28-.216.506-.483.506a.495.495 0 0 1-.484-.506V18.13h-3.319a.49.49 0 0 1-.497-.483.49.49 0 0 1 .497-.484h3.32v-3.257c0-.28.216-.506.483-.506zM12 2c1.48 0 2.624.392 3.402 1.164.73.724 1.1 1.737 1.1 3.012v2.037a1.971 1.971 0 0 1-.356 2.65c-.303 1.013-.782 1.894-1.394 2.563v.733c.07.129.372.496 1.664 1.18v.902c-1.863-.935-2.319-1.476-2.446-1.885a.4.4 0 0 1-.018-.12v-.97a.4.4 0 0 1 .114-.279c.6-.614 1.066-1.468 1.347-2.47a.4.4 0 0 1 .155-.22 1.172 1.172 0 0 0 .223-1.7.4.4 0 0 1-.09-.25V6.175c0-2.209-1.28-3.376-3.701-3.376-2.388 0-3.703 1.199-3.703 3.376v2.172a.4.4 0 0 1-.09.252 1.172 1.172 0 0 0 .224 1.698.4.4 0 0 1 .155.22c.28.999.746 1.853 1.347 2.47a.4.4 0 0 1 .114.279v.97a.4.4 0 0 1-.018.118c-.114.369-.508.922-2.557 1.94-1.115.553-2.584 1.18-4.492 1.918a.293.293 0 0 0-.18.273v2.425c0 .16.126.289.28.289h13.336v.294c0 .18.036.35.1.506H3.08A1.085 1.085 0 0 1 2 20.91v-2.424a1.1 1.1 0 0 1 .69-1.018c1.886-.73 3.333-1.347 4.426-1.89 1.69-.84 2.053-1.276 2.13-1.419v-.733c-.613-.671-1.092-1.552-1.393-2.564a1.975 1.975 0 0 1-.356-2.647v-2.04c0-1.248.39-2.29 1.13-3.013C9.414 2.39 10.549 2 12 2z" fill="currentColor" fill-rule="evenodd"/></symbol><symbol id="fullscreen" viewBox="0 0 24 24"><path d="M11.83 14.083a.449.449 0 0 0-.13-.3L10.217 12.3a.449.449 0 0 0-.3-.13.449.449 0 0 0-.299.13l-4.323 4.323-1.875-1.875a.828.828 0 0 0-.586-.247.84.84 0 0 0-.833.833v5.834a.84.84 0 0 0 .833.833h5.834a.84.84 0 0 0 .833-.833.828.828 0 0 0-.247-.586l-1.875-1.875 4.323-4.323a.449.449 0 0 0 .13-.3zM22 2.833A.84.84 0 0 0 21.167 2h-5.834a.84.84 0 0 0-.833.833c0 .222.091.43.247.586l1.875 1.875L12.3 9.617a.449.449 0 0 0-.13.3c0 .104.052.221.13.3l1.485 1.484c.078.078.195.13.3.13a.449.449 0 0 0 .299-.13l4.323-4.323 1.875 1.875a.828.828 0 0 0 .586.247.84.84 0 0 0 .833-.833V2.833z" fill="currentColor" fill-rule="evenodd"/></symbol><symbol id="gifting" viewBox="0 0 24 24"><path d="M12.703 12V7.217h-1.728V12H3.2V9.447c0-.775.08-1.056.23-1.34.151-.283.372-.506.654-.657.278-.15.555-.23 1.306-.233a3.48 3.48 0 0 1-.462-1.739C4.928 3.558 6.475 2 8.383 2c1.909 0 3.456 1.557 3.456 3.478 0-1.92 1.547-3.478 3.456-3.478 1.908 0 3.455 1.557 3.455 3.478a3.48 3.48 0 0 1-.462 1.74c.751.001 1.028.082 1.306.232.282.151.503.374.653.657.15.284.231.565.231 1.34V12h-7.775zm0 1.74h7.775v6.03c0 .776-.08 1.057-.23 1.34a1.578 1.578 0 0 1-.654.658c-.282.151-.56.232-1.331.232h-5.56v-8.26zM5.415 22c-.77 0-1.05-.08-1.331-.232a1.575 1.575 0 0 1-.653-.658c-.15-.283-.231-.564-.231-1.34v-6.03h7.775V22h-5.56zm9.88-14.783c.954 0 1.727-.778 1.727-1.739 0-.96-.773-1.739-1.727-1.739-.955 0-1.728.779-1.728 1.74v1.738h1.728zm-6.912 0h1.728V5.478c0-.96-.773-1.739-1.728-1.739-.954 0-1.727.779-1.727 1.74 0 .96.773 1.738 1.727 1.738z" fill="currentColor" fill-rule="evenodd"/></symbol><symbol id="hand-grab" viewBox="0 0 24 24"><path d="M12 4.667c-.924 0-1.667.742-1.667 1.666V8h-.416V6.79c0-.821-.625-1.498-1.459-1.498C7.651 5.292 7 5.942 7 6.75v5.586l-.417-.39v-2.24c0-.82-.625-1.498-1.458-1.498-.807 0-1.458.651-1.458 1.459v2.916c0 .404.169.782.455 1.068l4.037 3.854c.377.378.508.808.508 1.328a.84.84 0 0 0 .833.834h8.333a.84.84 0 0 0 .834-.834v-.325c0-.339.039-.677.13-1.003l1.406-5.677a3.72 3.72 0 0 0 .13-1.002V7.622c0-.82-.625-1.497-1.458-1.497-.807 0-1.458.651-1.458 1.458V8H17V6.372c0-.69-.469-1.328-1.159-1.471a2.137 2.137 0 0 0-.3-.026c-.807 0-1.458.651-1.458 1.458V8h-.416V6.411c0-.872-.625-1.64-1.498-1.731-.065-.013-.117-.013-.169-.013zM12 3c.703 0 1.38.221 1.94.651a3.155 3.155 0 0 1 1.602-.443c1.028 0 1.979.495 2.565 1.341.247-.065.508-.09.768-.09C20.62 4.458 22 5.89 22 7.621v3.204c0 .468-.065.95-.17 1.406l-1.419 5.677c-.078.312-.078.612-.078.924a2.5 2.5 0 0 1-2.5 2.5H9.5c-1.484 0-2.5-1.185-2.5-2.617l-4.01-3.854A3.195 3.195 0 0 1 2 12.583V9.667a3.134 3.134 0 0 1 3.125-3.125c.078 0 .143 0 .208.013a3.133 3.133 0 0 1 4.401-2.657A3.256 3.256 0 0 1 12 3z" fill="currentColor" fill-rule="evenodd"/></symbol><symbol id="hand-paper" viewBox="0 0 24 24"><path d="M12.784 2.573c-.76 0-1.372.614-1.372 1.376v8.06h-.392V5.522a1.372 1.372 0 1 0-2.745 0v9.633l-1.888-2.52a1.566 1.566 0 0 0-1.25-.626 1.574 1.574 0 0 0-1.25 2.519l4.706 6.291c.294.393.76.627 1.25.627h8.432c.563 0 1.053-.406 1.164-.959l.931-4.976a4.69 4.69 0 0 0 .061-.725V8.667a1.372 1.372 0 1 0-2.745 0v3.342h-.392V5.522a1.372 1.372 0 1 0-2.745 0v6.487h-.392V3.95c0-.762-.613-1.376-1.373-1.376zm0-1.573c1.103 0 2.12.627 2.623 1.622.171-.037.343-.05.515-.05a2.954 2.954 0 0 1 2.94 2.95v.209C20.567 5.632 22 6.947 22 8.667v6.119c0 .344-.037.688-.098 1.02l-.931 4.964a2.737 2.737 0 0 1-2.696 2.248H9.843a3.19 3.19 0 0 1-2.512-1.253l-4.706-6.29A3.184 3.184 0 0 1 2 13.581a3.14 3.14 0 0 1 3.137-3.146c.515 0 1.14.123 1.569.418V5.522a2.954 2.954 0 0 1 2.941-2.95c.172 0 .343.013.515.05A2.945 2.945 0 0 1 12.784 1z" fill="currentColor" fill-rule="evenodd"/></symbol><symbol id="hand" viewBox="0 0 24 24"><path d="M8.29 7.123c-.432.356-1.085.32-1.453-.082-.116-.126-.165-.25-.155-.388.017-.236.205-.518.472-.742.023-.014 2.255-1.481 4.455-2.013a14.59 14.59 0 0 0 2.847-1.011L13.998 2c-.863.41-1.727.718-2.641.938-2.38.575-4.691 2.095-4.831 2.19-.526.433-.836.95-.873 1.456-.03.403.112.787.41 1.111.241.263.544.439.87.544l-.204.17a1.924 1.924 0 0 0-.714 1.355 1.862 1.862 0 0 0 .496 1.407c.275.3.63.491 1.009.587a1.894 1.894 0 0 0-.276.84 1.86 1.86 0 0 0 .496 1.406c.241.262.546.439.872.545l-4.893 4.028a1.927 1.927 0 0 0-.714 1.354 1.863 1.863 0 0 0 .496 1.408c.402.437.968.661 1.54.661.481 0 .967-.158 1.36-.482l7.26-5.98c-.125.537.114 1.101.626 1.423.245.154.567.259.934.259.454 0 .977-.16 1.511-.582.145-.112 3.556-2.78 4.132-6.36 0-.004.011-.386.136-.887l-1.002-.231a5.054 5.054 0 0 0-.16 1.035c-.509 3.13-3.72 5.646-3.756 5.675-.54.426-.99.413-1.23.263-.157-.099-.231-.254-.197-.372l.383-1.09c.064-.185.182-.355.337-.488l1.579-1.355-.344-.368-.336-.375L5.73 20.767c-.434.356-1.087.32-1.455-.083a.907.907 0 0 1-.24-.684.96.96 0 0 1 .355-.672l6.248-5.144 1.174-.966-.673-.752-1.172.966c-.433.356-1.085.32-1.453-.082a.91.91 0 0 1-.241-.683.957.957 0 0 1 .357-.674l.78-.643 1.172-.965-.671-.75-1.172.964c-.433.356-1.085.32-1.454-.082a.906.906 0 0 1-.24-.684c.018-.26.145-.5.355-.673l1.562-1.287.392-.32-.672-.752-.391.322z" fill="currentColor" fill-rule="evenodd"/></symbol><symbol id="heart-o" viewBox="0 0 24 24"><path d="M19.142 12.424 12 19.781l-7.141-7.357c-1.164-1.199-1.86-2.61-1.86-3.773 0-2.565 2.02-4.65 4.5-4.65 1.767 0 3.314 1.066 4.04 2.784.009.02.025.033.036.051a.46.46 0 0 0 .073.107c.03.03.066.05.102.07.02.012.034.03.056.038l.004.001c.05.021.106.03.163.033.009.001.018.006.027.006.01 0 .019-.005.028-.006a.498.498 0 0 0 .163-.033h.004c.022-.01.036-.027.055-.039a.426.426 0 0 0 .103-.07.46.46 0 0 0 .073-.107c.01-.018.027-.03.035-.05C13.187 5.066 14.736 4 16.5 4 18.982 4 21 6.086 21 8.651c0 1.163-.695 2.574-1.858 3.773M16.5 3c-1.854 0-3.503.952-4.5 2.53C11.004 3.952 9.354 3 7.5 3 4.468 3 2 5.535 2 8.651c0 2.043 1.498 3.806 2.142 4.47l7.5 7.727a.498.498 0 0 0 .707.01c.003-.004.004-.009.008-.012l.002.002 7.5-7.727c.644-.664 2.14-2.427 2.14-4.47 0-3.116-2.466-5.65-5.5-5.65" fill="currentColor" fill-rule="evenodd"/></symbol><symbol id="heart" viewBox="0 0 24 24"><path d="M16.5 3c-1.854 0-3.503.952-4.5 2.53C11.004 3.952 9.354 3 7.5 3 4.468 3 2 5.535 2 8.651c0 2.043 1.498 3.806 2.142 4.47l7.5 7.727a.498.498 0 0 0 .707.01c.003-.004.004-.009.008-.012l.002.002 7.5-7.727c.644-.664 2.14-2.427 2.14-4.47 0-3.116-2.466-5.65-5.5-5.65" fill="currentColor" fill-rule="evenodd"/></symbol><symbol id="home-o" viewBox="0 0 24 24"><path d="M20.429 12h-1.5v9h-4v-5h-6v5h-4v-9h-1.5c-.061 0-.171 0-.28-.005.036-.041.08-.088.134-.141l8.646-8.647 8.646 8.647c.054.053.097.1.133.141-.108.005-.218.005-.28.005m.855-.854-9-9a.502.502 0 0 0-.708 0l-9 9c-.205.206-.75.75-.52 1.307C2.284 13 3 13 3.43 13h.5v8.5a.5.5 0 0 0 .5.5h5.5v-5h4v5h5.5a.5.5 0 0 0 .5-.5V13h.5c.429 0 1.146 0 1.373-.547.23-.557-.314-1.101-.52-1.307" fill="currentColor" fill-rule="evenodd"/></symbol><symbol id="home" viewBox="0 0 24 24"><path d="m21.283 11.146-9-9a.502.502 0 0 0-.708 0l-9 9c-.205.206-.75.75-.52 1.307C2.284 13 3 13 3.43 13h.5v8.5a.5.5 0 0 0 .5.5h5.5v-5h4v5h5.5a.5.5 0 0 0 .5-.5V13h.5c.429 0 1.146 0 1.373-.547.23-.557-.314-1.101-.52-1.307" fill="currentColor" fill-rule="evenodd"/></symbol><symbol id="image-add" viewBox="0 0 24 24"><path d="m14.5 14.401 1.584 2.376c.1.148.272.243.447.222a.501.501 0 0 0 .416-.276l1.638-3.276L21 16.667V19h-9.566l3.066-4.599zm-6.5 4.6v-9h13v5l-2.1-2.8a.5.5 0 0 0-.847.075l-1.615 3.23-1.522-2.284c-.186-.277-.646-.277-.832 0L10.232 19H8zM21.5 9h-14a.5.5 0 0 0-.5.5v10a.5.5 0 0 0 .5.5h14a.5.5 0 0 0 .5-.5v-10a.5.5 0 0 0-.5-.5zm-11 4a.5.5 0 1 1 .002-1.002A.5.5 0 0 1 10.5 13m-5-1a.5.5 0 0 1 .5.5v5a.5.5 0 0 1-1 0v-5a.5.5 0 0 1 .5-.5zm5-1c.827 0 1.5.673 1.5 1.5s-.673 1.5-1.5 1.5S9 13.327 9 12.5s.673-1.5 1.5-1.5zm-5-7a.5.5 0 0 1 .5.5V7h2.5a.5.5 0 0 1 0 1H6v2.5a.5.5 0 0 1-1 0V8H2.5a.5.5 0 0 1 0-1H5V4.5a.5.5 0 0 1 .5-.5zm14 3a.5.5 0 0 1 0 1h-9a.5.5 0 0 1 0-1z" fill="currentColor" fill-rule="evenodd"/></symbol><symbol id="image" viewBox="0 0 24 24"><path d="m13.514 12.422 1.57 2.355c.09.135.24.218.403.223a.525.525 0 0 0 .414-.2l2.553-3.405L21 15.638V19H9.402l4.112-6.578zM5 19V7h16v6.695l-2.071-3.452a.501.501 0 0 0-.829-.043l-2.575 3.435-1.61-2.412A.5.5 0 0 0 13.5 11h-.007a.5.5 0 0 0-.416.235L8.223 19H5zM21.5 6h-17a.5.5 0 0 0-.5.5v13a.5.5 0 0 0 .5.5h17a.5.5 0 0 0 .5-.5v-13a.5.5 0 0 0-.5-.5zM9 12c-.551 0-1-.449-1-1 0-.551.449-1 1-1 .551 0 1 .449 1 1 0 .551-.449 1-1 1m10.5-8a.5.5 0 0 1 0 1H3v12.5a.5.5 0 0 1-1 0v-13a.5.5 0 0 1 .5-.5zM9 9c1.103 0 2 .897 2 2s-.897 2-2 2-2-.897-2-2 .897-2 2-2z" fill="currentColor" fill-rule="evenodd"/></symbol><symbol id="inaudible" viewBox="0 0 24 24"><path d="M5.75 14.195h2.48l.124.088 3.343 2.364c.204.124.147.14.155.122.014-.03.022-.072.022-.058l.001-9.066a.343.343 0 0 0-.025-.092c-.01-.021.049-.005-.13.103l-3.559 2.463H5.75v4.076zm-.12.953c-.45 0-.833-.32-.833-.785V9.975c0-.457.38-.808.832-.808h2.236l3.338-2.31c.683-.415 1.27-.248 1.518.307.071.16.1.309.107.453l-.001 9.124a1.198 1.198 0 0 1-.107.422c-.25.55-.835.712-1.544.28l-3.247-2.295h-2.3zm10.011.005c.866-.768 1.37-1.84 1.37-2.988 0-1.149-.504-2.22-1.37-2.987l-.632.712c.666.591 1.049 1.405 1.049 2.275 0 .87-.383 1.684-1.049 2.275l.632.713zm1.709 1.272c1.218-1.105 1.923-2.628 1.923-4.26 0-1.631-.705-3.155-1.923-4.26l-.64.706c1.023.928 1.61 2.197 1.61 3.554 0 1.357-.587 2.626-1.61 3.554l.64.706zm.614-11.568.673.674L5.531 18.637l-.674-.673L17.964 4.857zm-4.16 5.586c.517.43.822 1.052.822 1.722 0 .67-.305 1.293-.823 1.722l-.608-.733c.304-.252.479-.608.479-.989 0-.38-.175-.737-.48-.99zm5.27-5.517c3.901 3.901 3.901 10.247 0 14.148-3.9 3.901-10.247 3.901-14.148 0s-3.901-10.247 0-14.148c3.9-3.901 10.247-3.901 14.148 0zM5.599 18.4c3.53 3.529 9.273 3.53 12.802 0 3.53-3.53 3.529-9.272 0-12.802-3.53-3.529-9.273-3.529-12.802 0-3.529 3.53-3.529 9.272 0 12.802z" fill="currentColor"/></symbol><symbol id="info" viewBox="0 0 24 24"><path d="M14.738 10.582c.032 1.141-1.505 6.36-1.624 7.064-.175 1.033.99.389 1.835-.147a.489.489 0 0 1 .658.124.501.501 0 0 1-.063.663c-1.524 1.363-3.31 2.344-4.348 2.607-1.112.281-2.004.192-2.092-1.091-.087-1.284 1.405-6.777 1.501-7.358.08-.49-.99.018-1.876.49a.518.518 0 0 1-.552-.873c1.53-1.153 3.442-2.244 5.062-2.676.931-.25 1.467.055 1.499 1.197zM14.054 2c.521 0 1.14.172 1.645.516.71.482 1.134 1.25 1.134 2.226 0 .974-.442 1.823-1.176 2.424-.631.517-1.447.817-2.206.817-1.586 0-2.75-1.078-2.75-2.688 0-.802.325-1.615.892-2.23A3.301 3.301 0 0 1 14.054 2zm0 .974c-1.483 0-2.38 1.232-2.38 2.32 0 1.09.75 1.716 1.777 1.716 1.028 0 2.41-.837 2.41-2.268 0-1.432-1.288-1.768-1.807-1.768zm-.653 14.245c-.005.003.012.002.037.003a.65.65 0 0 1 .369.145.69.69 0 0 1 .253.392.41.41 0 0 1 .01.078c.021-.134.106-.473.269-1.091l.247-.93a200.261 200.261 0 0 0 .4-1.532c.493-1.935.742-3.12.724-3.73-.023-.83-.264-1.475-.807-1.876-.53-.39-1.178-.431-1.915-.234-1.65.44-3.637 1.514-5.396 2.84a1.487 1.487 0 0 0-.447 1.828 1.49 1.49 0 0 0 2.041.682c.507-.27.897-.456 1.155-.543.055-.019.097-.03.12-.035a.553.553 0 0 1-.12-.003c-.44-.06-.765-.507-.696-.927-.018.113-.586 2.416-.736 3.054-.055.233-.108.458-.157.675-.441 1.932-.663 3.19-.618 3.853.065.96.499 1.665 1.274 1.972.58.229 1.23.199 2.026-.003 1.302-.33 3.228-1.457 4.758-2.825.563-.504.64-1.356.202-1.96a1.462 1.462 0 0 0-1.965-.376c-.476.302-.834.492-1.028.543z" fill="currentColor"/></symbol><symbol id="invisible" viewBox="0 0 24 24"><path d="M21.69 3.603 21.104 3 2.31 21.251l.586.603L21.69 3.603zm-8.483 5.965.309-.782c-3.298-1.303-6.598 1.91-5.25 5.125l.775-.325c-1.055-2.517 1.548-5.052 4.166-4.018zM2.103 12.232 2 12.427l.103.196c.872 1.661 2.077 3.087 3.518 4.163l.503-.674c-1.339-1-2.462-2.328-3.277-3.88v.39c2.577-4.907 7.855-7.054 12.602-5.227l.302-.784c-5.154-1.984-10.877.343-13.648 5.62zm8.69 3.054-.308.782c3.3 1.304 6.596-1.912 5.25-5.125l-.776.325c1.054 2.516-1.547 5.053-4.165 4.018zm11.104-2.663.103-.196-.103-.195a12.34 12.34 0 0 0-3.519-4.164l-.502.674c1.339 1 2.462 2.329 3.277 3.88v-.39c-2.577 4.908-7.855 7.054-12.602 5.227l-.302.784c5.154 1.984 10.877-.343 13.648-5.62zm-9.6.938.199.817a2.035 2.035 0 0 0 1.5-1.46l-.814-.21a1.195 1.195 0 0 1-.884.853zm3.437-2.618-.775.325c1.055 2.517-1.547 5.053-4.165 4.018l-.31.782c3.3 1.304 6.597-1.91 5.25-5.125zm-5.73.995.814.209c.107-.419.447-.749.884-.855l-.197-.817a2.035 2.035 0 0 0-1.501 1.463zm3.992.98-.814-.21a1.195 1.195 0 0 1-.884.853l.198.817a2.035 2.035 0 0 0 1.5-1.46z" fill="currentColor"/></symbol><symbol id="layer" viewBox="0 0 24 24"><path d="M3.703 7.418 12 2.945l8.297 4.473L12 12.242 3.703 7.418zM12 2l-.196.106-9.149 4.932L2 7.391l.643.374 9.149 5.318.208.121.208-.12 9.149-5.319.643-.374-.655-.353-9.149-4.932L12 2zm6.657 13.067 1.664.967L12 20.87l-8.32-4.837 1.663-.967-.417-.72-2.283 1.327-.62.36.62.36 9.149 5.318.208.121.208-.12 9.149-5.319.62-.36-.62-.36-2.284-1.328-.416.721zm0-4.382 1.664.968L12 16.489l-8.32-4.836 1.663-.968-.417-.72-2.283 1.327-.62.36.62.36 9.149 5.319.208.121.208-.121 9.149-5.318.62-.36-.62-.36-2.284-1.328-.416.72z" fill="currentColor" fill-rule="evenodd"/></symbol><symbol id="link" viewBox="0 0 24 24"><path d="m20.575 8.202-3.074 3.084c-.328.33-.765.51-1.23.51-.464 0-.9-.18-1.23-.51l-.84-.844 1.23-1.234a.46.46 0 0 0 0-.65.457.457 0 0 0-.648 0l-1.23 1.234-.809-.811a1.75 1.75 0 0 1 0-2.468l3.074-3.084c.329-.33.766-.51 1.23-.51.465 0 .901.18 1.23.51l2.297 2.305c.329.33.51.768.51 1.234 0 .466-.181.904-.51 1.234zm-9.32 6.817a1.75 1.75 0 0 1 0 2.468L8.183 20.57c-.329.33-.766.51-1.23.51-.465 0-.901-.18-1.23-.51l-2.297-2.305a1.736 1.736 0 0 1-.51-1.234c0-.466.181-.904.51-1.234L6.5 12.713c.328-.33.765-.51 1.23-.51.464 0 .9.18 1.23.51l.84.844-1.23 1.234a.46.46 0 0 0 .324.784.455.455 0 0 0 .324-.135l1.23-1.233.809.811zm9.968-9.934L18.925 2.78A2.632 2.632 0 0 0 17.048 2c-.709 0-1.375.277-1.877.78l-3.074 3.084a2.672 2.672 0 0 0 0 3.766l.81.812-2.46 2.467-.842-.844a2.633 2.633 0 0 0-1.877-.78c-.708 0-1.375.277-1.876.78l-3.075 3.084A2.65 2.65 0 0 0 2 17.032c0 .711.276 1.38.777 1.883l2.298 2.305c.501.503 1.168.78 1.877.78.709 0 1.375-.277 1.877-.78l3.074-3.084a2.672 2.672 0 0 0 0-3.766l-.81-.812 2.46-2.467.842.844c.501.503 1.168.78 1.877.78a2.63 2.63 0 0 0 1.876-.78l3.075-3.084A2.65 2.65 0 0 0 22 6.968a2.65 2.65 0 0 0-.777-1.883z" fill="currentColor" fill-rule="evenodd"/></symbol><symbol id="live" viewBox="0 0 24 24"><path d="M15.333 12A3.34 3.34 0 0 1 12 15.333 3.34 3.34 0 0 1 8.667 12 3.34 3.34 0 0 1 12 8.667 3.34 3.34 0 0 1 15.333 12zM17 12c0-2.76-2.24-5-5-5s-5 2.24-5 5 2.24 5 5 5 5-2.24 5-5zm1.667 0A6.663 6.663 0 0 1 12 18.667 6.663 6.663 0 0 1 5.333 12 6.663 6.663 0 0 1 12 5.333 6.663 6.663 0 0 1 18.667 12zm1.666 0c0-4.596-3.737-8.333-8.333-8.333S3.667 7.404 3.667 12 7.404 20.333 12 20.333s8.333-3.737 8.333-8.333zM22 12c0 5.52-4.48 10-10 10S2 17.52 2 12 6.48 2 12 2s10 4.48 10 10z" fill="currentColor" fill-rule="evenodd"/></symbol><symbol id="lock" viewBox="0 0 24 24"><path d="M18.389 19.788c0 .754-.608 1.367-1.355 1.367h-9.07c-.759 0-1.353-.593-1.355-1.391l-.781-8.247c0-.757.594-1.348 1.353-1.348h10.636c.76 0 1.354.589 1.355 1.3l-.783 8.32zM9.183 5.974c0-1.696 1.519-3.129 3.317-3.129 1.798 0 3.317 1.433 3.317 3.13v3.349H9.183v-3.35zm7.464 3.35v-3.35C16.647 3.82 14.747 2 12.5 2c-2.248 0-4.147 1.82-4.147 3.974v3.35H7.181c-1.203 0-2.183.983-2.181 2.233l.781 8.247c0 1.21.979 2.196 2.183 2.196h9.07c1.204 0 2.184-.992 2.182-2.171l.784-8.32a2.162 2.162 0 0 0-2.183-2.185h-1.17zm-3.5 8.294h-1.09l-.293-2.485c0-.46.375-.834.836-.834.47 0 .838.362.841.776l-.295 2.543zm-2.188-2.434.34 2.905a.409.409 0 0 0 .401.37h1.804a.41.41 0 0 0 .401-.37l.342-2.964c0-.92-.739-1.667-1.647-1.667-.907 0-1.644.75-1.641 1.726z" fill="currentColor" fill-rule="evenodd"/></symbol><symbol id="menu" viewBox="0 0 24 24"><path d="M3 3.997v5.006c0 .55.447.997.997.997h5.006c.55 0 .997-.447.997-.997V3.997A.998.998 0 0 0 9.003 3H3.997A.998.998 0 0 0 3 3.997zm-1 0C2 2.894 2.896 2 3.997 2h5.006C10.106 2 11 2.896 11 3.997v5.006A1.998 1.998 0 0 1 9.003 11H3.997A1.998 1.998 0 0 1 2 9.003V3.997zm12 0v5.006c0 .55.447.997.997.997h5.006c.55 0 .997-.447.997-.997V3.997A.998.998 0 0 0 20.003 3h-5.006a.998.998 0 0 0-.997.997zm-1 0C13 2.894 13.896 2 14.997 2h5.006C21.106 2 22 2.896 22 3.997v5.006A1.998 1.998 0 0 1 20.003 11h-5.006A1.998 1.998 0 0 1 13 9.003V3.997zm-10 11v5.006c0 .55.447.997.997.997h5.006c.55 0 .997-.447.997-.997v-5.006A.998.998 0 0 0 9.003 14H3.997a.998.998 0 0 0-.997.997zm-1 0C2 13.894 2.896 13 3.997 13h5.006c1.103 0 1.997.896 1.997 1.997v5.006A1.998 1.998 0 0 1 9.003 22H3.997A1.998 1.998 0 0 1 2 20.003v-5.006zm12 0v5.006c0 .55.447.997.997.997h5.006c.55 0 .997-.447.997-.997v-5.006a.998.998 0 0 0-.997-.997h-5.006a.998.998 0 0 0-.997.997zm-1 0c0-1.103.896-1.997 1.997-1.997h5.006c1.103 0 1.997.896 1.997 1.997v5.006A1.998 1.998 0 0 1 20.003 22h-5.006A1.998 1.998 0 0 1 13 20.003v-5.006z" fill="currentColor"/></symbol><symbol id="mic-off" viewBox="0 0 24 24"><path d="M14.592 19.925H9.258v1h5.334v-1zm1.833-12.464v6.975c0 2.49-1.994 4.052-4.504 4.035-2.497-.018-4.496-1.593-4.496-4.035V7.461c0-2.436 2-4.014 4.496-4.036 2.51-.022 4.504 1.538 4.504 4.036zm-1 0c0-1.883-1.495-3.054-3.496-3.036-1.993.018-3.504 1.21-3.504 3.036v6.975c0 1.831 1.51 3.02 3.504 3.035 2 .014 3.496-1.159 3.496-3.035V7.461zM19.515 3l.706.707-9.717 9.717 5.41.001v1l-6.41-.001-5.797 5.797L3 19.514l5.109-5.109v-.98l.981-.001L19.514 3zm-7.09 14.925v1.997h-1v-1.997h1z" fill="currentColor"/></symbol><symbol id="mic" viewBox="0 0 24 24"><path d="M15.167 19.5H9.833v1h5.334v-1zM17 7.036v6.975c0 2.49-1.994 4.052-4.504 4.035C10 18.028 8 16.453 8 14.01V7.036C8 4.6 10 3.022 12.496 3 15.006 2.978 17 4.538 17 7.036zm-1 0C16 5.153 14.505 3.982 12.504 4 10.511 4.018 9 5.21 9 7.036v6.975c0 1.831 1.51 3.02 3.504 3.035 2 .014 3.496-1.158 3.496-3.035V7.036zM13 17.5v1.997h-1V17.5h1zm3.49-4.5v1H8.684v-1h7.804z" fill="currentColor"/></symbol><symbol id="mirror" viewBox="0 0 24 24"><path d="M12.458 20.687v.819h-.82v-.82h.82zM8.747 5.506v15.18H2l6.747-15.18zm3.759 13.318v.369h-.82v-.37h.82zm0-.922v.369h-.82v-.37h.82zm0-.923v.37h-.82v-.37h.82zm0-.921v.368h-.82v-.368h.82zm0-.923v.37h-.82v-.37h.82zm0-.922v.37h-.82v-.37h.82zm0-.922v.369h-.82v-.37h.82zm0-.922v.369h-.82v-.369h.82zm0-.922v.368h-.82v-.368h.82zm0-.922v.368h-.82v-.368h.82zm0-.923v.37h-.82v-.37h.82zm0-2.988v.82h-.82v-.82h.82zm2.747-1.108L22 20.686h-6.747V5.507zM7.928 9.361v10.555H3.253L7.928 9.36zm8.14-.017 4.679 10.528h-4.68V9.344zm-4.041-6.32c.985 0 2.103.439 2.801 1.39l.096-.39.791.196-.458 1.872-1.862-.461.195-.796.645.16c-.526-.789-1.422-1.152-2.208-1.152-.878 0-1.945.444-2.306 1.688l-.783-.23c.402-1.383 1.614-2.277 3.089-2.277z" fill="currentColor" fill-rule="evenodd"/></symbol><symbol id="mobile" viewBox="0 0 24 24"><path d="M12.402 19.21a.701.701 0 0 0-.705.697c0 .385.315.698.705.698a.701.701 0 0 0 .704-.698.701.701 0 0 0-.704-.698zm4.931-15.35c0-.611-.401-1.126-.955-1.314.005-.027.016-.052.016-.08a.467.467 0 0 0-.47-.466h-1.409c-.26 0-.47.208-.47.465H8.88c-.777 0-1.41.626-1.41 1.395v1.396a.467.467 0 0 0-.469.465v.93c0 .257.21.465.47.465v.465c-.26 0-.47.209-.47.466v.93c0 .256.21.465.47.465v11.163c0 .769.632 1.395 1.409 1.395h7.045c.777 0 1.41-.626 1.41-1.395M8.41 17.814V6.651h7.985v11.163M8.409 3.86c0-.256.21-.465.47-.465h7.045c.26 0 .47.21.47.465v1.86H8.409m7.985 14.885c0 .256-.21.465-.47.465H8.88a.468.468 0 0 1-.47-.465v-1.86h7.985" fill="currentColor" fill-rule="evenodd"/></symbol><symbol id="naiyo" viewBox="0 0 107 115"><path d="M82.184 54.825c-2.75-.313-5.783-.595-8.283.845-2.22 1.283-3.626 3.85-3.407 6.447.563 6.417 9.44 5.446 13.753 4.32.969-.25.563-1.753-.406-1.503-3.376.877-11.69 2.16-11.816-3.286-.062-2.473 1.72-4.507 4.001-5.196 1.97-.594 4.126-.313 6.127-.062 1.031.125 1.031-1.44.031-1.565z" fill="currentColor"/><path fill-rule="evenodd" clip-rule="evenodd" d="m49.605 108.298-.008.001c-1.466.097-2.577.173-3.422.237a6.671 6.671 0 0 1-.187.616c-1.12 3.128-4.112 4.657-7.898 4.993-2.155.191-4.105-.222-5.747-1.206-1.606-.961-2.64-2.298-3.294-3.519-1.154-2.153-1.356-4.367-1.396-5.091-.968-6.88-2.921-21.65-3.792-28.26-2.645-.277-4.858-.915-6.66-1.93-2.456-1.382-3.94-3.352-4.644-5.484-1.282-3.876.24-7.539.465-8.069.142-.334.3-.598.432-.795 2.007-2.984 4.79-4.02 7.31-4.234-1.822-4.83-2.81-8.6-2.9-8.945a4.887 4.887 0 0 1-.048-.209c-3.63-17.072 2.3-28.077 9.565-34.68 6.723-6.11 14.312-8.23 15.404-8.512C63.164-3.014 76.91.324 85.512 8.82c8.291 8.19 10.787 20.24 11.016 29.378.066 2.628.099 4.804.127 6.687.068 4.553.11 7.386.541 10.721.6 4.648 1.968 10.215 5.432 22.379 1.677 5.893 2.822 10.258 3.512 13.509.667 3.142 1.006 5.653.79 7.634-.115 1.067-.408 2.166-1.038 3.18a6.496 6.496 0 0 1-2.278 2.187c-.704.412-1.438.683-1.886.848l-.013.005-.164.061c-.442.163-.76.28-1.103.437-4.073 1.87-7.397-.903-8.646-2.167a15.837 15.837 0 0 1-1.813-2.228c-.706.239-1.603.46-2.446.654-1.18.271-2.67.581-4.357.911-3.379.662-7.648 1.427-12.015 2.164-8.642 1.458-17.997 2.866-21.557 3.117h-.009zm41.396-7.202-.017.003.017-.003zm7.78 1.115c.492-.226.957-.397 1.386-.554 3.442-1.265 4.562-1.676-1.386-22.576-5.929-20.819-5.963-23.123-6.13-34.36-.028-1.856-.06-3.955-.121-6.421-.438-17.398-9.56-43.21-48.638-31.245l-.012.004-.028.007c-.621.155-28.753 7.322-22.124 38.506a.823.823 0 0 0 .01.037c.08.313 1.267 4.844 3.454 10.297l.007.018a86.726 86.726 0 0 0 .935 2.238c.384.882-.633 1.943-1.566 1.707-.516-.13-1.076-.24-1.658-.304a9.4 9.4 0 0 0-.537-.045l-.01-.001c-2.004-.113-4.168.39-5.59 2.504a.728.728 0 0 0-.069.125c-.353.833-3.842 9.81 9.788 10.074.505.01.946.37 1.012.87.557 4.243 3.02 22.946 4.129 30.811.006.042.008.078.01.12.027.667.426 6.64 6.093 6.137 5.079-.45 4.74-3.119 4.592-4.29-.027-.212-.047-.376-.028-.467.125-.595.406-.657 7.033-1.095 6.657-.47 36.601-5.478 39.602-6.73 3-1.252 3.657.313 3.782.658.125.313 3 5.383 6.064 3.975z" fill="currentColor"/><path fill-rule="evenodd" clip-rule="evenodd" d="M41.67 30.354a1 1 0 0 1 .057 1.413c-1.75 1.897-3.66 2.62-5.369 2.69-1.672.067-3.094-.492-3.933-1.07a1 1 0 0 1 1.134-1.647c.515.354 1.517.766 2.719.718 1.164-.047 2.578-.528 3.979-2.047a1 1 0 0 1 1.413-.057zm23.012-3.934a1 1 0 0 1 .057 1.413c-1.75 1.898-3.66 2.62-5.369 2.69-1.671.067-3.094-.492-3.933-1.07a1 1 0 0 1 1.135-1.647c.514.354 1.516.767 2.718.718 1.164-.047 2.578-.528 3.98-2.047a1 1 0 0 1 1.412-.057zM5.595 54.562c.923-.71 2.122-.907 2.91-.907a1 1 0 1 1 0 2c-.546 0-1.248.152-1.691.493a1.11 1.11 0 0 0-.41.57c-.07.236-.098.603.062 1.162a1 1 0 1 1-1.923.55c-.24-.842-.26-1.611-.052-2.294a3.109 3.109 0 0 1 1.104-1.574zM1.953 51.02c1.542-1.424 3.625-1.865 5.051-1.865a1 1 0 1 1 0 2c-1.108 0-2.637.359-3.693 1.334-.982.907-1.732 2.51-1.037 5.435a1 1 0 0 1-1.946.462c-.826-3.476.009-5.872 1.625-7.366z" fill="currentColor"/></symbol><symbol id="next" viewBox="0 0 24 24"><path d="M4.433 19.658c-.122.122-.225.164-.308.125-.083-.038-.125-.14-.125-.308V5.322c0-.167.042-.27.125-.308.083-.039.186.003.308.125l6.827 6.827a.616.616 0 0 1 .125.182V5.322c0-.167.041-.27.125-.308.083-.039.186.003.307.125l6.827 6.827a.591.591 0 0 1 .183.432.591.591 0 0 1-.183.433l-6.827 6.827c-.121.122-.224.164-.307.125-.084-.038-.125-.14-.125-.308v-6.827a.841.841 0 0 1-.125.183l-6.827 6.827z" fill="currentColor" fill-rule="evenodd"/></symbol><symbol id="notification" viewBox="0 0 24 24"><path d="M14.899 16.298h-1.953a.407.407 0 0 0-.265.099l-4.973 4.278v-3.942a.418.418 0 0 0-.317-.41c-2.245-.537-4.567-3.202-4.567-6.733 0-3.595 2.746-6.749 5.876-6.749h6.199c3.096 0 5.713 3.08 5.713 6.728 0 3.648-2.617 6.729-5.713 6.729m0-14.298H8.7C5.069 2 2 5.476 2 9.59c0 3.784 2.43 6.69 4.884 7.463v4.526a.42.42 0 0 0 .412.421c.096 0 .19-.034.267-.1l5.533-4.761H14.9c3.543 0 6.537-3.466 6.537-7.57C21.436 5.466 18.442 2 14.899 2m.282 7.81-3.34 3.478L8.5 9.81a1.935 1.935 0 0 1 0-2.655 1.742 1.742 0 0 1 1.264-.546c.476 0 .925.194 1.262.546l.52.54a.404.404 0 0 0 .588 0l.52-.54c.675-.703 1.85-.704 2.526 0a1.935 1.935 0 0 1 0 2.655m-3.115-3.244-.225.235-.225-.234c-.988-1.03-2.716-1.03-3.703 0-1.015 1.056-1.015 2.775 0 3.83l3.634 3.785a.404.404 0 0 0 .588 0L15.77 10.4c1.015-1.057 1.015-2.776 0-3.832-.988-1.03-2.716-1.03-3.703-.001" fill="currentColor" fill-rule="evenodd"/></symbol><symbol id="pawoo" viewBox="0 0 24 24"><path d="M10.208 5.946c1.113-.598 2.74-1.095 5.04-.905 2.3.191 3.51 1.138 4.11 1.61.598.471 1.368 1.498 1.814 2.738.447 1.24.826 2.543.828 4.518.002 1.976-.41 3.573-1.437 4.491l-.079.069c-1.02.862-2.429 1.095-3.577.674-1.178-.43-1.44-.842-1.786-1.694-.346-.851-.492-2.16-.493-3.085 0-.925.053-1.02.052-1.493 0-.472-.304-.44-.36-.012a11.11 11.11 0 0 0-.087 1.275c0 .409.03 1.47.091 2.043.062.573.248 1.447.433 1.866.185.42.538.926.538.926s-.793.414-2.354.44c-1.56.025-2.432.01-3.732-.133-1.301-.143-2.88-.487-3.93-.893-1.05-.407-1.58-.781-2.324-1.456-.744-.674-1.343-1.696-.646-2.168.697-.472.93-.056 1.254.205.211.17.627.596 1.262.818.634.223.828.222 1.163.001.467-.307.241-1.97.241-2.345 0-.375-.055-1.67.22-2.631.276-.961.493-1.57 1.03-2.314.536-.745 1.616-1.946 2.729-2.545zm-.562 4.4c-1.006 0-1.821 1.005-1.821 2.246 0 .586.084 1.197.382 1.597l.038.048a1.553 1.553 0 0 1-.134-.638c0-.742.5-1.343 1.119-1.343.618 0 1.119.601 1.119 1.343 0 .558-.284 1.037-.688 1.24.486-.004 1.01-.172 1.334-.556.328-.388.473-1.055.473-1.691 0-1.241-.816-2.247-1.822-2.247z" fill="currentColor" fill-rule="evenodd"/></symbol><symbol id="picture-in-picture" viewBox="0 0 24 24"><path d="M22.6 3c.8 0 1.4.6 1.4 1.4v15.1c0 .8-.6 1.5-1.4 1.5H1.4C.6 21 0 20.3 0 19.5V4.4C0 3.6.6 3 1.4 3h21.2zm0 1H1.4c-.2 0-.4.2-.4.4v15.1c0 .3.2.5.4.5h21.2c.2 0 .4-.2.4-.5V4.4c0-.2-.2-.4-.4-.4z"/><path d="M10.6 11h10.8v7.2H10.6z"/></symbol><symbol id="pixiv-text" viewBox="0 0 24 24"><path d="M7.75 10.614c-.516-.451-1.238-.71-2.077-.71C3.487 9.903 2 11.59 2 11.59l.419.665s.232.02.11-.372c.105-.2.313-.47.718-.781v4.43c-.175.05-.406.143-.249.3h1.204c.16-.159-.091-.254-.244-.3V14.49s.826.324 1.715.324c.782 0 1.493-.233 2.022-.653.53-.418.87-1.042.868-1.755a2.352 2.352 0 0 0-.814-1.791zm1.878-.71c.108 0 .197.087.197.196v4.532a.197.197 0 0 1-.197.198h-.245a.197.197 0 0 1-.198-.198V10.1c0-.109.089-.197.198-.197zm6.406 0c.11 0 .197.087.198.196v4.532a.197.197 0 0 1-.198.198h-.245a.197.197 0 0 1-.197-.198V10.1c0-.109.088-.197.197-.197zm1.206 0c.18 0 .229.022.31.184l1.855 3.682 1.856-3.682c.08-.162.13-.185.309-.185h.228c.168 0 .258.075.164.265-.095.19-2.277 4.478-2.281 4.486l-.04.06a.307.307 0 0 1-.236.116.316.316 0 0 1-.276-.176s-2.186-4.296-2.281-4.486c-.095-.19-.004-.265.164-.265zm-6.32 0c.178 0 .245.046.337.164.093.118 1.45 1.787 1.45 1.787s1.357-1.67 1.45-1.787c.092-.118.159-.165.338-.165h.367c.232 0 .15.105.085.192-.164.215-1.833 2.277-1.833 2.277s1.611 2.05 1.775 2.266c.065.086.147.192-.085.192h-.367c-.18 0-.246-.047-.339-.165l-1.39-1.776s-1.347 1.658-1.44 1.776c-.093.118-.159.165-.338.165h-.368c-.231 0-.15-.106-.084-.192.163-.215 1.823-2.266 1.823-2.266s-1.67-2.062-1.834-2.277c-.065-.087-.146-.192.085-.192zm-5.32.373c.664 0 1.186.251 1.539.632.352.384.544.893.546 1.485-.003.577-.208 1.052-.574 1.416-.366.361-.898.59-1.511.59-.685 0-1.261-.133-1.642-.32v-3.325c.418-.297 1.095-.48 1.642-.478zM9.504 8a.496.496 0 0 1 .511.512.496.496 0 0 1-.145.366.495.495 0 0 1-.366.146.496.496 0 0 1-.512-.512A.496.496 0 0 1 9.505 8zm6.407 0a.496.496 0 0 1 .512.512.497.497 0 0 1-.512.512.496.496 0 0 1-.511-.512.496.496 0 0 1 .51-.512z" fill="currentColor" fill-rule="evenodd"/></symbol><symbol id="pixiv" viewBox="0 0 24 24"><path d="M19.52 5.156C17.95 3.79 15.75 3 13.194 3 6.532 3 2 8.123 2 8.123l1.277 2.02s.706.058.332-1.132c.323-.607.955-1.425 2.19-2.37v13.45c-.532.15-1.236.431-.757.909h3.67c.483-.483-.28-.773-.744-.909v-3.173s2.515.984 5.226.984c2.382 0 4.549-.706 6.16-1.982 1.614-1.268 2.652-3.162 2.646-5.326a7.128 7.128 0 0 0-2.48-5.438zm-1.947 9.7c-1.114 1.096-2.733 1.789-4.601 1.787-2.083.001-3.838-.4-4.995-.97V5.598c1.27-.9 3.331-1.454 4.995-1.45 2.022 0 3.61.763 4.683 1.918 1.072 1.162 1.658 2.705 1.663 4.5-.007 1.747-.633 3.187-1.745 4.292z" fill="currentColor" fill-rule="evenodd"/></symbol><symbol id="play" viewBox="0 0 24 24"><path d="M5 6.26v12.11c0 1.737 1.88 2.822 3.384 1.954l10.488-6.056c1.504-.868 1.504-3.039 0-3.907L8.384 4.306C6.88 3.437 5 4.523 5 6.259" fill="currentColor" fill-rule="evenodd"/></symbol><symbol id="plus" viewBox="0 0 24 24"><path d="M21 11h-8V3a1 1 0 0 0-2 0v8H3a1 1 0 0 0 0 2h8v8a1 1 0 1 0 2 0v-8h8a1 1 0 1 0 0-2" fill="currentColor" fill-rule="evenodd"/></symbol><symbol id="popout" viewBox="0 0 24 24"><path d="M20.571 20.214V8.071a.367.367 0 0 0-.357-.357H8.071a.367.367 0 0 0-.357.357v12.143c0 .19.168.357.357.357h12.143c.19 0 .357-.167.357-.357zM22 8.071v12.143c0 .982-.804 1.786-1.786 1.786H8.071a1.791 1.791 0 0 1-1.785-1.786V8.071a1.79 1.79 0 0 1 1.785-1.785h12.143A1.79 1.79 0 0 1 22 8.071zm-4.286-4.285V5.57h-1.428V3.786a.367.367 0 0 0-.357-.357H3.786a.367.367 0 0 0-.357.357v12.143c0 .19.167.357.357.357H5.57v1.428H3.786A1.791 1.791 0 0 1 2 15.93V3.786C2 2.804 2.804 2 3.786 2h12.143a1.79 1.79 0 0 1 1.785 1.786z" fill="currentColor" fill-rule="evenodd"/></symbol><symbol id="popular-o" viewBox="0 0 24 24"><path d="M12 17.672c.105 0 .21.025.305.075l4.595 2.404-.876-5.093a.654.654 0 0 1 .189-.58l3.718-3.609-5.14-.743a.659.659 0 0 1-.494-.36L12 5.134 9.703 9.767a.659.659 0 0 1-.494.359l-5.14.743 3.718 3.61c.155.15.226.367.19.579l-.88 5.093 4.598-2.404a.66.66 0 0 1 .305-.075M6.225 22a.655.655 0 0 1-.648-.765l1.046-6.06-4.425-4.294a.653.653 0 0 1 .365-1.116l6.114-.886 2.734-5.514a.656.656 0 0 1 1.179 0l2.734 5.514 6.114.886a.655.655 0 0 1 .364 1.116l-4.424 4.295 1.041 6.059a.65.65 0 0 1-.26.64.663.663 0 0 1-.692.051L12 19.066l-5.47 2.86a.668.668 0 0 1-.305.074" fill="currentColor" fill-rule="evenodd"/></symbol><symbol id="popular" viewBox="0 0 24 24"><path d="M6.225 22a.655.655 0 0 1-.648-.765l1.046-6.06-4.425-4.294a.653.653 0 0 1 .365-1.116l6.114-.886 2.734-5.514a.656.656 0 0 1 1.179 0l2.734 5.514 6.114.886a.655.655 0 0 1 .364 1.116l-4.424 4.295 1.041 6.059a.65.65 0 0 1-.26.64.663.663 0 0 1-.692.051L12 19.066l-5.47 2.86a.668.668 0 0 1-.305.074" fill="currentColor" fill-rule="evenodd"/></symbol><symbol id="power" viewBox="0 0 24 24"><path d="M21 12.77c0 5.083-4.043 9.23-9 9.23s-9-4.147-9-9.23C3 9.848 4.313 7.155 6.598 5.4a1.46 1.46 0 0 1 2.097.3 1.56 1.56 0 0 1-.293 2.152A6.168 6.168 0 0 0 6 12.77c0 3.39 2.695 6.154 6 6.154s6-2.764 6-6.154a6.168 6.168 0 0 0-2.402-4.916 1.56 1.56 0 0 1-.293-2.151 1.461 1.461 0 0 1 2.097-.3C19.687 7.155 21 9.848 21 12.768zm-7.5-9.232v7.693c0 .841-.68 1.538-1.5 1.538s-1.5-.697-1.5-1.538V3.538C10.5 2.698 11.18 2 12 2s1.5.697 1.5 1.538z" fill="currentColor" fill-rule="evenodd"/></symbol><symbol id="quality-high" viewBox="0 0 24 24"><path d="M12 4c5.513 0 10 4.487 10 10 0 1.92-.547 3.772-1.574 5.39a.722.722 0 0 1-.602.324H4.176a.722.722 0 0 1-.602-.323A9.996 9.996 0 0 1 2 14C2 8.487 6.487 4 12 4zm.949 5.748L11.82 14.01a2.136 2.136 0 0 0-1.897 1.585 2.152 2.152 0 0 0 1.53 2.623 2.152 2.152 0 0 0 2.622-1.53 2.165 2.165 0 0 0-.87-2.32l1.127-4.264a.726.726 0 0 0-.514-.87.717.717 0 0 0-.87.513z" fill="currentColor" fill-rule="evenodd"/></symbol><symbol id="quality-low" viewBox="0 0 24 24"><path d="M12 4c5.513 0 10 4.487 10 10 0 1.92-.547 3.772-1.574 5.39a.722.722 0 0 1-.602.324H4.176a.722.722 0 0 1-.602-.323A9.996 9.996 0 0 1 2 14C2 8.487 6.487 4 12 4zm-5.503 7.493a.717.717 0 0 0 .097 1.006l3.388 2.823a2.136 2.136 0 0 0 .635 2.39 2.152 2.152 0 0 0 3.023-.278 2.152 2.152 0 0 0-.278-3.023 2.165 2.165 0 0 0-2.471-.192l-3.388-2.823a.726.726 0 0 0-1.006.097z" fill="currentColor" fill-rule="evenodd"/></symbol><symbol id="question" viewBox="0 0 24 24"><path d="M12.204 17.62a2.2 2.2 0 0 1 2.19 2.19 2.2 2.2 0 0 1-2.19 2.19 2.2 2.2 0 0 1-2.19-2.19 2.2 2.2 0 0 1 2.19-2.19zM12.194 2c3.388 0 6.723 1.621 6.723 5.495 0 3.571-3.944 4.945-4.791 6.236-.635.962-.424 2.308-2.17 2.308-1.139 0-1.695-.962-1.695-1.84 0-3.27 4.632-4.012 4.632-6.704 0-1.484-.952-2.363-2.54-2.363-3.389 0-2.065 3.627-4.633 3.627-.926 0-1.72-.577-1.72-1.676C6 4.39 8.964 2 12.194 2z" fill="currentColor" fill-rule="evenodd"/></symbol><symbol id="r15" viewBox="0 0 24 24"><path d="M9.698 15.708H8.385l-1.562-3.125H5.417v3.125H4.292V8.292h2.875c1.406 0 2.302.906 2.302 2.166 0 1.063-.646 1.74-1.48 1.97l1.709 3.28zM7.083 9.302H5.417v2.323h1.666c.75 0 1.26-.427 1.26-1.156 0-.73-.51-1.167-1.26-1.167zm6.302 6.406h-1.062v-6.26l-1.448 1.27V9.543l1.448-1.25h1.062v7.416zm5.615-.51c-.333.333-.844.583-1.563.583-.708 0-1.26-.25-1.583-.573-.396-.396-.52-.885-.562-1.416h1.062c.084.656.417 1.03 1.084 1.03.312 0 .583-.103.77-.29.313-.313.355-.803.355-1.303 0-.885-.23-1.552-1.084-1.552-.604 0-.937.302-1.052.667h-.969V8.292h4v.948h-3.041v1.958c.25-.26.687-.427 1.229-.427.583 0 1.031.177 1.333.479.563.563.646 1.281.646 1.98 0 .79-.083 1.426-.625 1.968zM19.92 22c1.157-.057 2.08-1.093 2.08-2.361V4.364C22 3.058 21.023 2 19.819 2H4.18C2.977 2 2 3.058 2 4.364v15.275c0 1.268.923 2.304 2.08 2.361h15.84z" fill="currentColor" fill-rule="evenodd"/></symbol><symbol id="r18" viewBox="0 0 24 24"><path d="M19.92 22c1.157-.057 2.08-1.093 2.08-2.361V4.364C22 3.058 21.023 2 19.819 2H4.18C2.977 2 2 3.058 2 4.364v15.275c0 1.268.923 2.304 2.08 2.361h15.84zm-2.604-9.658c-.686 0-1.216.552-1.216 1.24 0 .687.53 1.229 1.216 1.229.686 0 1.216-.542 1.216-1.23 0-.687-.53-1.24-1.216-1.24zm0-3.178c-.644 0-1.091.49-1.091 1.136 0 .656.447 1.125 1.091 1.125.644 0 1.101-.47 1.101-1.125 0-.646-.457-1.136-1.101-1.136zm0 6.553c-1.268 0-2.275-.813-2.275-2.157 0-.885.498-1.427 1.018-1.74a1.81 1.81 0 0 1-.894-1.593c0-1.24.946-2.053 2.151-2.053 1.205 0 2.161.813 2.161 2.053a1.81 1.81 0 0 1-.893 1.594c.52.312 1.018.854 1.018 1.74 0 1.343-1.018 2.156-2.286 2.156zm-4.072-.02h-1.06V9.434l-1.444 1.27V9.53l1.444-1.25h1.06v7.417zM5.379 9.288v2.323h1.663c.748 0 1.257-.427 1.257-1.156 0-.73-.51-1.167-1.257-1.167H5.379zm4.27 6.407H8.34L6.782 12.57H5.379v3.125H4.257V8.28h2.868c1.402 0 2.296.906 2.296 2.166 0 1.063-.644 1.74-1.475 1.97l1.704 3.281z" fill="currentColor" fill-rule="evenodd"/></symbol><symbol id="redo" viewBox="0 0 24 24"><path d="M17.038 10.69a.5.5 0 0 0 .816.162l3.998-3.999a.494.494 0 0 0 0-.708l-3.998-3.999a.499.499 0 0 0-.545-.108A.498.498 0 0 0 17 2.5V6H9c-3.86 0-7 3.14-7 7s3.14 7 7 7h11.5a.5.5 0 0 0 0-1H9c-3.309 0-6-2.692-6-6 0-3.31 2.691-6 6-6h8v3.5c0 .065.014.13.038.191" fill="currentColor" fill-rule="evenodd"/></symbol><symbol id="redraw" viewBox="0 0 24 24"><path d="M11.931 12.518c.252.067.497.141.73.222l-5.184 5.196 1.247 1.25 5.642-5.655c.202.126.387.259.557.396L8.963 19.9c-.074.073-.14.121-5.64 2.035a.849.849 0 0 1-.328.065.978.978 0 0 1-.692-.302c-.288-.288-.38-.699-.237-1.048 1.943-5.49 1.983-5.53 2.054-5.602l1.977-1.98.503.448-1.767 1.77 2.168 2.173 4.93-4.94zm-3.485-8.25a.242.242 0 0 1 .383.197v2.056c0 .248.199.45.484.446 5.927.618 10.225 3.513 10.225 6.895 0 2.204-1.829 4.248-4.937 5.57 1.55-.933 2.42-2.173 2.42-3.483 0-2.524-3.175-4.5-7.748-4.803a.442.442 0 0 0-.304.122.453.453 0 0 0-.14.329v2.126c0 .232-.222.239-.247.239-.051 0-.1-.016-.105-.016L3.221 9.291a.238.238 0 0 1-.1-.197c0-.045.012-.132.13-.22zm10.587-1.793 2.474 2.466c.317.317.493.737.493 1.185 0 .448-.176.868-.493 1.185l-2.735 2.726a8.48 8.48 0 0 0-.48-.472l2.738-2.729a.995.995 0 0 0 0-1.42L18.556 2.95a1.035 1.035 0 0 0-1.425 0l-3.9 3.887a20.383 20.383 0 0 0-.744-.207l4.168-4.155c.633-.633 1.74-.633 2.378 0zm.604 2.899v.478L16.91 8.567a12.493 12.493 0 0 0-.601-.357l2.848-2.836a.342.342 0 0 1 .481 0zM3.087 21.306c.191-.068.396-.138.603-.211l-.787-.79-.208.588c-.052.124.007.254.085.33m1.616-.375a445.467 445.467 0 0 0 3.724-1.316l-1.354-1.356-2.281-2.286c-.276.748-.826 2.287-1.333 3.712" fill="currentColor" fill-rule="evenodd"/></symbol><symbol id="reload" viewBox="0 0 24 24"><path d="M20 10.344h-6.025l2.448-2.499a6.19 6.19 0 0 0-2.789-1.634 6.226 6.226 0 0 0-3.172-.053A5.876 5.876 0 0 0 7.64 7.76a6.018 6.018 0 0 0-1.586 2.766 6.195 6.195 0 0 0 0 3.14 5.984 5.984 0 0 0 1.596 2.767 5.942 5.942 0 0 0 2.81 1.602 5.917 5.917 0 0 0 3.152 0 5.942 5.942 0 0 0 2.81-1.602c.61-.613 1.061-1.271 1.352-1.976.291-.705.437-1.492.437-2.36H20c0 .94-.192 1.893-.575 2.862-.411 1.082-.993 1.993-1.746 2.734a7.812 7.812 0 0 1-3.64 2.05 8.108 8.108 0 0 1-4.046 0 7.812 7.812 0 0 1-3.64-2.05 7.794 7.794 0 0 1-2.087-3.589 7.708 7.708 0 0 1 0-4.016A7.794 7.794 0 0 1 6.353 6.5 7.815 7.815 0 0 1 9.95 4.45a7.713 7.713 0 0 1 4.024 0 7.813 7.813 0 0 1 3.62 2.05L20 4v6.344z" fill="currentColor" fill-rule="evenodd"/></symbol><symbol id="reply-o" viewBox="0 0 24 24"><path d="M15.595 19.83c1.703-1.031 2.66-2.404 2.66-3.855 0-2.793-3.488-4.978-8.483-5.312l-.032-.001a.485.485 0 0 0-.334.134.503.503 0 0 0-.155.364v2.354c0 .256-.243.263-.27.263-.057 0-.11-.016-.115-.016L3.09 8.609a.267.267 0 0 1-.11-.219c0-.05.014-.146.144-.245L8.83 3.05a.264.264 0 0 1 .42.218v2.274a.494.494 0 0 0 .532.495c6.515.683 11.238 3.887 11.238 7.63 0 2.439-2.011 4.702-5.426 6.164M10.23 5.098v-1.83c-.001-.964-1.092-1.684-2.009-.995L2.511 7.37A1.259 1.259 0 0 0 2 8.39c0 .41.187.782.478.996l5.778 5.151c.689.508 1.975.107 1.974-1.023v-1.815c4.052.397 7.046 2.192 7.046 4.276 0 1.27-1.066 2.509-2.925 3.4a.921.921 0 0 0-.505 1.047c.096.438.462.745.888.745a.954.954 0 0 0 .323-.058C19.405 19.525 22 16.743 22 13.666c0-4.175-4.884-7.732-11.77-8.568" fill="currentColor" fill-rule="evenodd"/></symbol><symbol id="reply" viewBox="0 0 24 24"><path d="M10.23 5.098v-1.83c-.001-.964-1.092-1.684-2.009-.995L2.511 7.37A1.259 1.259 0 0 0 2 8.39c0 .41.187.782.478.996l5.778 5.151c.689.508 1.975.107 1.974-1.023v-1.815c4.052.397 7.046 2.192 7.046 4.276 0 1.27-1.066 2.509-2.925 3.4a.921.921 0 0 0-.505 1.047c.096.438.462.745.888.745a.954.954 0 0 0 .323-.058C19.405 19.525 22 16.743 22 13.666c0-4.175-4.884-7.732-11.77-8.568" fill="currentColor" fill-rule="evenodd"/></symbol><symbol id="report" viewBox="0 0 24 24"><path d="M3.277 21.16V2.67c0-.235.19-.42.425-.42a.42.42 0 0 1 .426.42v18.49h.85a.42.42 0 1 1 0 .84H2.427a.42.42 0 1 1 0-.84h.85zm5.744-9.916c1.696 0 3.157.345 4.569.688 1.426.336 2.773.664 4.367.664 1.046 0 2.092-.143 3.192-.437V3.781a12.806 12.806 0 0 1-3.192.412c-1.695 0-3.155-.353-4.567-.69-1.427-.344-2.774-.663-4.369-.663-1.045 0-2.092.135-3.191.428v8.38a12.797 12.797 0 0 1 3.191-.404zm8.936 2.193c-1.695 0-3.155-.353-4.568-.69-1.426-.344-2.773-.663-4.368-.663-1.141 0-2.286.168-3.498.512a.401.401 0 0 1-.374-.067.41.41 0 0 1-.17-.336V2.949a.43.43 0 0 1 .306-.404A13.4 13.4 0 0 1 9.021 2c1.696 0 3.157.345 4.57.688 1.425.337 2.772.664 4.366.664 1.143 0 2.286-.176 3.498-.52a.43.43 0 0 1 .375.066c.107.077.17.202.17.337v9.244a.421.421 0 0 1-.306.404c-1.29.37-2.513.554-3.737.554z" fill="currentColor" fill-rule="evenodd"/></symbol><symbol id="resnap-o" viewBox="0 0 24 24"><path d="M21.5 11a.5.5 0 0 1 .5.5v1c0 2.481-2.019 4.5-4.5 4.5H6.707l2.147 2.146a.502.502 0 0 1-.708.708l-2.999-3a.499.499 0 0 1-.108-.545.499.499 0 0 1 .108-.163l2.999-3a.502.502 0 0 1 .708.708L6.707 16H17.5c1.93 0 3.5-1.57 3.5-3.5v-1a.5.5 0 0 1 .5-.5zm-6.353-6.854a.5.5 0 0 1 .707 0l2.999 3a.502.502 0 0 1 0 .708l-2.999 3a.502.502 0 0 1-.707 0 .5.5 0 0 1 0-.708L17.293 8H6.5C4.57 8 3 9.57 3 11.5v1a.5.5 0 0 1-1 0v-1C2 9.019 4.019 7 6.5 7h10.793l-2.146-2.146a.5.5 0 0 1 0-.708z" fill="currentColor" fill-rule="evenodd"/></symbol><symbol id="resnap" viewBox="0 0 24 24"><path d="M21 11a1 1 0 0 1 1 1v1c0 2.481-2.019 4.5-4.5 4.5H8.414l.793.793a.999.999 0 1 1-1.414 1.414l-2.499-2.499a1 1 0 0 1 0-1.416l2.499-2.499a.999.999 0 1 1 1.414 1.414l-.793.793H17.5c1.379 0 2.5-1.121 2.5-2.5v-1a1 1 0 0 1 1-1zm-6.207-6.707a.999.999 0 0 1 1.414 0l2.499 2.499a1 1 0 0 1 0 1.416l-2.5 2.499a.997.997 0 0 1-1.413 0 .999.999 0 0 1 0-1.414l.793-.793H6.5A2.503 2.503 0 0 0 4 11v1a1 1 0 0 1-2 0v-1c0-2.481 2.019-4.5 4.5-4.5h9.086l-.793-.793a.999.999 0 0 1 0-1.414z" fill="currentColor" fill-rule="evenodd"/></symbol><symbol id="rotate" viewBox="0 0 24 24"><path d="M2.034 11.356c.429-5.024 4.861-8.75 9.9-8.323a9.138 9.138 0 0 1 6.141 3.115l-.697.603a8.214 8.214 0 0 0-5.522-2.801c-4.531-.385-8.517 2.966-8.903 7.484-.386 4.518 2.975 8.492 7.506 8.876 4.21.358 7.923-2.47 8.744-6.484l-2.073 1.267-.481-.78 3.295-2.015L22 15.63l-.784.48-1.157-1.878c-1.004 4.348-5.076 7.385-9.678 6.994-5.04-.428-8.776-4.847-8.347-9.871z" fill="currentColor"/></symbol><symbol id="screen" viewBox="0 0 24 24"><path d="M20.797 4c.672 0 1.22.54 1.22 1.21l-.001 12.632h1.976v1.684c0 .713-.583 1.288-1.3 1.288H1.3c-.716 0-1.3-.575-1.3-1.288v-1.683l1.975-.001V5.21c0-.628.482-1.142 1.096-1.204L3.196 4zm0 1H3.196a.215.215 0 0 0-.22.21l-.001 12.632h8.283v.728h1.477v-.727l8.281-.001V5.21a.212.212 0 0 0-.16-.202L20.796 5zM12.8 19.57h-1.608a.934.934 0 0 1-.913-.727H1v.683c0 .158.133.288.3.288h21.392c.168 0 .3-.13.3-.288v-.683h-9.279a.934.934 0 0 1-.912.727zm3.765-11.274c.65-.315 1.347.18 1.347.881v5.515c0 .701-.7 1.196-1.347.882l-2.59-1.347v.639c0 .567-.436 1.045-.997 1.045H6.996c-.562 0-.999-.478-.999-1.045V9.003c0-.568.437-1.045.999-1.045h5.982c.561 0 .998.477.998 1.045v.64l2.59-1.347zm-3.59 2.994V9.003c0-.034-.009-.045.003-.045H6.996c.01 0 .001.01.001.045v5.863c0 .034.01.045-.001.045h5.982c-.012 0-.002-.011-.002-.045v-2.287l.73.38 3.206 1.668V9.242l-3.936 2.048z" fill="currentColor"/></symbol><symbol id="scrolltop" viewBox="0 0 24 24"><path d="M2 5.833 2.001 3H22v2.833h-9.609l6.155 7.238c.133.171.063.345-.153.345h-3.908v7.926c0 .217-.219.408-.436.408H9.855c-.216 0-.38-.191-.38-.408v-7.926H5.501c-.217 0-.285-.173-.153-.344l6.153-7.239H2z" fill="currentColor" fill-rule="evenodd"/></symbol><symbol id="search" viewBox="0 0 24 24"><path d="M20.854 20.854a.5.5 0 0 1-.707 0l-5.716-5.716a7.61 7.61 0 0 0 .707-.707l5.716 5.716a.5.5 0 0 1 0 .707M3 9.5C3 5.916 5.916 3 9.5 3S16 5.916 16 9.5 13.084 16 9.5 16A6.508 6.508 0 0 1 3 9.5m18.561 9.94-5.793-5.793-.068.068A7.454 7.454 0 0 0 17 9.5C17 5.365 13.636 2 9.5 2 5.365 2 2 5.365 2 9.5 2 13.636 5.365 17 9.5 17c1.562 0 3.013-.48 4.215-1.3l-.068.068 5.793 5.793a1.497 1.497 0 0 0 2.121 0 1.501 1.501 0 0 0 0-2.121M4.501 10a.5.5 0 0 1-.5-.5A5.505 5.505 0 0 1 9.5 4a.5.5 0 0 1 0 1A4.505 4.505 0 0 0 5 9.5a.5.5 0 0 1-.5.5" fill="currentColor" fill-rule="evenodd"/></symbol><symbol id="setting" viewBox="0 0 24 24"><path d="M12 8c-2.206 0-4 1.794-4 4s1.794 4 4 4 4-1.794 4-4-1.794-4-4-4zm0 7c-1.655 0-3-1.345-3-3 0-1.654 1.345-3 3-3s3 1.346 3 3c0 1.655-1.345 3-3 3zm8.657-5.091-.97-.103a7.955 7.955 0 0 0-.701-1.69l.614-.758c.484-.598.44-1.46-.105-2.005l-.848-.848c-.525-.525-1.426-.573-2.005-.106l-.758.615a7.948 7.948 0 0 0-1.69-.701l-.103-.97A1.497 1.497 0 0 0 12.6 2h-1.2c-.77 0-1.411.577-1.492 1.343l-.102.97a7.93 7.93 0 0 0-1.69.701l-.759-.615c-.577-.467-1.479-.419-2.004.106l-.848.848a1.498 1.498 0 0 0-.106 2.005l.614.759a7.975 7.975 0 0 0-.7 1.69l-.97.101A1.497 1.497 0 0 0 2 11.4v1.2c0 .769.577 1.411 1.343 1.492l.97.101a7.99 7.99 0 0 0 .7 1.691l-.614.758a1.498 1.498 0 0 0 .106 2.005l.848.848c.525.525 1.428.574 2.004.105l.76-.614a7.93 7.93 0 0 0 1.689.701l.103.97c.08.765.721 1.343 1.491 1.343h1.2c.769 0 1.411-.577 1.492-1.343l.101-.97a7.948 7.948 0 0 0 1.691-.701l.758.614a1.502 1.502 0 0 0 2.005-.105l.848-.848c.544-.544.59-1.406.105-2.005l-.614-.758a7.959 7.959 0 0 0 .701-1.69l.97-.103A1.497 1.497 0 0 0 22 12.6v-1.2c0-.769-.577-1.41-1.343-1.492zm.343 2.69a.498.498 0 0 1-.448.498l-1.314.139a.5.5 0 0 0-.434.381 6.941 6.941 0 0 1-.85 2.05.5.5 0 0 0 .037.577l.832 1.027a.5.5 0 0 1-.035.669l-.848.848a.498.498 0 0 1-.668.035l-1.028-.832a.5.5 0 0 0-.578-.037 6.92 6.92 0 0 1-2.049.85.5.5 0 0 0-.382.434l-.138 1.314A.5.5 0 0 1 12.6 21h-1.2a.498.498 0 0 1-.497-.448l-.139-1.314a.5.5 0 0 0-.381-.434 6.924 6.924 0 0 1-2.05-.85.502.502 0 0 0-.577.037l-1.028.832a.497.497 0 0 1-.668-.035l-.848-.848a.5.5 0 0 1-.035-.669l.832-1.027a.5.5 0 0 0 .036-.578 6.935 6.935 0 0 1-.85-2.049.5.5 0 0 0-.434-.382l-1.314-.138A.499.499 0 0 1 3 12.6v-1.2c0-.257.192-.47.447-.497l1.314-.139a.5.5 0 0 0 .434-.381 6.94 6.94 0 0 1 .85-2.05.5.5 0 0 0-.036-.577L5.177 6.73a.5.5 0 0 1 .035-.669l.848-.848a.498.498 0 0 1 .668-.035l1.029.833a.502.502 0 0 0 .577.036 6.924 6.924 0 0 1 2.049-.85.5.5 0 0 0 .381-.434l.139-1.314A.498.498 0 0 1 11.4 3h1.2c.257 0 .47.192.497.447l.139 1.315a.5.5 0 0 0 .381.434 6.92 6.92 0 0 1 2.05.85.5.5 0 0 0 .577-.037l1.027-.832a.498.498 0 0 1 .669.035l.848.848a.499.499 0 0 1 .035.669l-.832 1.027a.5.5 0 0 0-.037.578 6.94 6.94 0 0 1 .85 2.049.5.5 0 0 0 .434.382l1.314.138A.5.5 0 0 1 21 11.4v1.2z" fill="currentColor" fill-rule="evenodd"/></symbol><symbol id="share" viewBox="0 0 24 24"><path d="M8.901 8.364a.454.454 0 0 1 0 .909l-4.994-.001V21.09h15.435V9.272h-4.993a.454.454 0 0 1-.447-.372l-.007-.082c0-.25.203-.454.454-.454h5.447a.454.454 0 0 1 .454.464l-.001 12.707.001.01c0 .224-.16.41-.372.448l-.082.007H3.454A.454.454 0 0 1 3 21.545V8.818c0-.25.203-.454.454-.454zM11.625 2c.116 0 .232.044.321.133l3.632 3.636a.455.455 0 0 1-.642.643L12.078 3.55V17c0 .223-.16.409-.371.447l-.082.008a.454.454 0 0 1-.454-.455V3.55L8.314 6.412a.454.454 0 0 1-.57.059l-.072-.059a.455.455 0 0 1 0-.643l3.632-3.636A.452.452 0 0 1 11.625 2z" fill="currentColor"/></symbol><symbol id="sketch-text" viewBox="0 0 24 24"><path d="M2.347 10.95c.007.347.356.587 1.048.719h.01c.398.073.706.184.924.334.266.174.4.404.4.69 0 .288-.134.529-.403.723a1.56 1.56 0 0 1-.941.292c-.457-.003-.903-.179-1.34-.526-.055-.05-.06-.103-.015-.162a.116.116 0 0 1 .078-.042.105.105 0 0 1 .083.026c.391.317.789.473 1.194.47.318 0 .584-.08.799-.24.207-.15.311-.33.311-.543 0-.39-.379-.655-1.136-.798h-.01c-.82-.153-1.23-.467-1.23-.944 0-.271.123-.497.37-.678.248-.18.543-.271.885-.271.149 0 .299.025.45.076.15.05.266.099.35.146.082.047.19.114.321.2.062.042.073.096.031.162-.038.063-.09.073-.155.031a8.361 8.361 0 0 0-.304-.187 1.723 1.723 0 0 0-.311-.133 1.196 1.196 0 0 0-.382-.066c-.29 0-.538.074-.742.22-.19.142-.285.309-.285.5zm3.31 2.628v-3.385a.13.13 0 0 1 .037-.091.116.116 0 0 1 .088-.04.129.129 0 0 1 .13.131v2.112L8.107 10.1a.138.138 0 0 1 .093-.036.12.12 0 0 1 .088.036.121.121 0 0 1 .037.089.13.13 0 0 1-.042.094l-1.39 1.397 1.421 1.815c.045.063.038.124-.02.183a.134.134 0 0 1-.089.026.1.1 0 0 1-.088-.047l-1.406-1.794-.8.803v.913a.117.117 0 0 1-.038.089.129.129 0 0 1-.18 0 .121.121 0 0 1-.035-.09zm3.71 0v-3.4c0-.035.013-.065.037-.09a.12.12 0 0 1 .088-.036h1.869a.124.124 0 0 1 .125.128.124.124 0 0 1-.125.128H9.622v1.444h1.52c.035 0 .065.014.089.04a.13.13 0 0 1 0 .18.12.12 0 0 1-.088.036h-1.52v1.44h1.738a.124.124 0 0 1 .125.128.124.124 0 0 1-.125.127H9.482a.131.131 0 0 1-.08-.039.117.117 0 0 1-.034-.086zm4.155 0v-3.27h-1.095a.116.116 0 0 1-.088-.04.13.13 0 0 1 0-.18.12.12 0 0 1 .088-.036h2.439a.12.12 0 0 1 .088.037.13.13 0 0 1 0 .18.116.116 0 0 1-.088.039H13.77v3.27a.121.121 0 0 1-.036.089.12.12 0 0 1-.089.036.12.12 0 0 1-.088-.036.121.121 0 0 1-.036-.09zm2.492-.415a1.762 1.762 0 0 1-.552-1.309c0-.513.184-.95.552-1.309A1.86 1.86 0 0 1 17.35 10c.436 0 .827.134 1.173.402a.145.145 0 0 1 .05.09.102.102 0 0 1-.029.092.111.111 0 0 1-.086.052.116.116 0 0 1-.09-.026 1.604 1.604 0 0 0-1.018-.354 1.59 1.59 0 0 0-1.157.469 1.53 1.53 0 0 0-.477 1.132c0 .441.159.817.477 1.126.318.31.69.465 1.113.465.424 0 .774-.119 1.051-.355a.14.14 0 0 1 .101-.024.104.104 0 0 1 .08.055.112.112 0 0 1 .032.094.119.119 0 0 1-.047.089 1.868 1.868 0 0 1-1.173.396c-.522 0-.967-.18-1.336-.54zm5.732.415v-1.575h-1.868v1.575a.117.117 0 0 1-.04.089.129.129 0 0 1-.178 0 .121.121 0 0 1-.037-.09v-3.4c0-.034.012-.064.037-.088a.129.129 0 0 1 .179 0 .117.117 0 0 1 .039.088v1.575h1.868v-1.575a.12.12 0 0 1 .036-.088.129.129 0 0 1 .179 0 .117.117 0 0 1 .039.088v3.4a.117.117 0 0 1-.039.09.129.129 0 0 1-.179 0 .121.121 0 0 1-.036-.09z" fill="currentColor" fill-rule="evenodd"/></symbol><symbol id="sketch" viewBox="0 0 24 24"><path d="M12 2C6.477 2 2 6.477 2 12s4.477 10 10 10 10-4.477 10-10S17.523 2 12 2zm1.875 6.252c0 .13-.105.234-.234.234h-3.047v6.3c0 .138.034.274.098.395l.554 1.046h1.508l.554-1.046a.846.846 0 0 0 .098-.394V9.425a.235.235 0 1 1 .47 0v5.362c0 .213-.054.425-.154.614l-.923 1.743a.902.902 0 0 1-1.598 0l-.923-1.743c-.1-.188-.153-.4-.153-.614V7.348c0-.536.436-.973.973-.973h1.804c.537 0 .973.437.973.973v.904zm-1.092 1.173v5.395a.235.235 0 1 1-.469 0V9.425a.235.235 0 1 1 .469 0zm-1.105 0v5.395a.234.234 0 1 1-.47 0V9.425a.234.234 0 1 1 .47 0zm.318 7.738a.434.434 0 0 0 .385-.232l.12-.227h-1.01l.12.227a.434.434 0 0 0 .385.232zm.915-10.312h-1.805a.505.505 0 0 0-.504.505v.668h2.812v-.668a.505.505 0 0 0-.503-.505z" fill="currentColor" fill-rule="evenodd"/></symbol><symbol id="sort" viewBox="0 0 24 24"><path d="M11.177 4c.169 0 .3.125.3.286V16.57h1.805c.169 0 .3.125.3.286 0 .08-.037.152-.094.214l-2.997 2.849a.341.341 0 0 1-.216.08.341.341 0 0 1-.217-.08l-3.007-2.858c-.084-.089-.112-.205-.065-.312a.308.308 0 0 1 .281-.179h1.805V4.286c0-.161.131-.286.3-.286h1.805zm-5.87 0c.076 0 .151.027.217.08l3.007 2.857c.085.09.113.206.066.313a.308.308 0 0 1-.282.179H6.51v12.285c0 .161-.132.286-.301.286H4.406c-.17 0-.301-.125-.301-.286V7.43H2.301c-.17 0-.301-.125-.301-.286 0-.08.038-.152.094-.214l2.998-2.85A.341.341 0 0 1 5.308 4zM22 18v1.714a.29.29 0 0 1-.3.286h-7.82a.29.29 0 0 1-.3-.286V18a.29.29 0 0 1 .3-.286h7.82c.168 0 .3.125.3.286zm0-4.571v1.714c0 .16-.167.286-.383.286h-7.654c-.215 0-.383-.125-.383-.286v-1.714c0-.161.168-.286.383-.286h7.654c.216 0 .383.125.383.286zm0-4.572v1.714c0 .161-.23.286-.526.286h-7.368c-.296 0-.526-.125-.526-.286V8.857c0-.16.23-.286.526-.286h7.368c.296 0 .526.125.526.286zm0-4.571V6c0 .16-.368.286-.842.286h-6.736c-.474 0-.842-.125-.842-.286V4.286c0-.161.368-.286.842-.286h6.736c.474 0 .842.125.842.286z" fill="currentColor" fill-rule="evenodd"/></symbol><symbol id="speaker" viewBox="0 0 24 24"><path d="m10.517 8.81 4.747-4.598a.753.753 0 0 1 1.276.54v14.495a.753.753 0 0 1-1.28.537l-4.647-4.574H7.506A1.506 1.506 0 0 1 6 13.704v-3.388c0-.832.674-1.506 1.506-1.506h3.011z" fill="currentColor"/></symbol><symbol id="stop" viewBox="0 0 24 24"><path d="M20 4.667v14.666a.671.671 0 0 1-.667.667H4.667A.671.671 0 0 1 4 19.333V4.667C4 4.302 4.302 4 4.667 4h14.666c.365 0 .667.302.667.667z" fill="currentColor" fill-rule="evenodd"/></symbol><symbol id="tag" viewBox="0 0 24 24"><path d="m3.053 14.783 6.17 6.17L21.12 9.05l-.152-3.813c0-1.221-.978-2.2-2.18-2.2l-3.837-.156L3.053 14.783zM9.223 22a.464.464 0 0 1-.308-.121l-6.788-6.79A.428.428 0 0 1 2 14.784a.45.45 0 0 1 .127-.314l12.34-12.34a.493.493 0 0 1 .326-.13l4.01.165c.8 0 1.566.315 2.143.89.577.576.893 1.344.893 2.164L22 9.208a.455.455 0 0 1-.127.33l-12.34 12.34a.464.464 0 0 1-.308.122zM18.17 4.521c-.35 0-.678.14-.926.384a1.314 1.314 0 0 0-.383.925c0 .35.136.68.383.926.494.496 1.357.496 1.851 0a1.3 1.3 0 0 0 .383-.926c0-.348-.136-.671-.383-.925a1.316 1.316 0 0 0-.925-.384zm-5.746 3.814-.394 1.976h1.157l.393-1.976h.37c.078 0 .143.023.194.07a.235.235 0 0 1 .078.183.321.321 0 0 1-.005.06l-.342 1.663h.993l-.061.352a.296.296 0 0 1-.11.199c-.058.042-.146.063-.265.063h-.646l-.304 1.526h.838c.075 0 .133.018.173.054.04.036.061.1.061.19a.544.544 0 0 1-.01.103l-.041.267h-1.11L13 15.045h-.38a.241.241 0 0 1-.182-.079.289.289 0 0 1-.073-.24.747.747 0 0 1 .007-.04l.333-1.621h-1.157l-.333 1.662c-.024.116-.072.198-.142.246a.415.415 0 0 1-.241.073h-.37l.398-1.981h-.684a.246.246 0 0 1-.169-.054c-.04-.036-.06-.097-.06-.185a.624.624 0 0 1 .009-.108l.037-.267h.956l.304-1.526h-1.086l.06-.347a.31.31 0 0 1 .108-.201c.056-.044.145-.066.267-.066h.74l.337-1.676a.36.36 0 0 1 .37-.3h.375zm7.288-4.04a2.18 2.18 0 1 1-3.085 0c.825-.83 2.263-.83 3.085 0zm-8.075 8.156h1.156l.305-1.526H11.94l-.304 1.526z" fill="currentColor" fill-rule="evenodd"/></symbol><symbol id="transition" viewBox="0 0 24 24"><path d="M21.228 11.324 11.312 4.13a.812.812 0 0 0-.912.019.821.821 0 0 0-.325.856l.82 3.522H4.178c-.65 0-1.179.53-1.179 1.184v4.7c0 .655.528 1.185 1.179 1.185h6.715l-.819 3.521a.821.821 0 0 0 .325.857c.272.192.633.2.912.019l9.916-7.193a.913.913 0 0 0 0-1.477z" fill="currentColor" fill-rule="evenodd"/></symbol><symbol id="trash" viewBox="0 0 24 24"><path d="M9.278 2.499c0-.276.236-.499.528-.499h4.222c.291 0 .528.223.528.499s-.237.499-.528.499H9.806a.514.514 0 0 1-.528-.499zm-4.75 3.992a.514.514 0 0 0 .528-.5c0-.825.71-1.496 1.583-1.496h10.555c.873 0 1.584.671 1.584 1.497 0 .276.236.499.528.499.29 0 .527-.223.527-.5 0-1.375-1.184-2.494-2.639-2.494H6.64C5.184 3.497 4 4.616 4 5.992c0 .276.236.499.528.499zM8.75 19.505h.028a.511.511 0 0 0 .498-.527L8.751 9.46a.518.518 0 0 0-.554-.474.511.511 0 0 0-.498.527l.527 9.518a.516.516 0 0 0 .525.474zm3.186 0c.299 0 .54-.224.54-.5v-9.52c0-.277-.241-.5-.54-.5-.298 0-.54.223-.54.5v9.518c0 .277.242.501.54.501zm3.117 0h.029c.277 0 .51-.207.525-.474l.526-9.518a.511.511 0 0 0-.498-.527.52.52 0 0 0-.553.474l-.527 9.518a.511.511 0 0 0 .498.527zm4.644-12.35c.1.106.148.247.132.388l-1.38 12.221C18.304 21.04 17.176 22 15.824 22H8.008c-1.352 0-2.48-.961-2.623-2.236L4.003 7.543a.483.483 0 0 1 .132-.387.539.539 0 0 1 .393-.166h14.778c.15 0 .292.06.392.166zm-.987.833H5.122L6.44 19.66c.086.765.762 1.342 1.572 1.342h7.809c.81 0 1.487-.577 1.573-1.342l1.317-11.672z" fill="currentColor" fill-rule="evenodd"/></symbol><symbol id="twitter" viewBox="0 0 24 24"><path d="M19.95 7.982c.009.174.013.348.013.523C19.963 13.845 15.836 20 8.289 20 5.973 20 3.816 19.331 2 18.185c.32.037.648.057.98.057a8.315 8.315 0 0 0 5.094-1.73 4.102 4.102 0 0 1-3.833-2.805 4.164 4.164 0 0 0 1.854-.07c-1.876-.371-3.29-2.004-3.29-3.961v-.051a4.145 4.145 0 0 0 1.857.506A4.024 4.024 0 0 1 2.837 6.77c0-.74.202-1.434.555-2.03a11.705 11.705 0 0 0 8.457 4.221 3.954 3.954 0 0 1-.106-.921c0-2.231 1.837-4.04 4.103-4.04 1.18 0 2.246.49 2.996 1.276a8.348 8.348 0 0 0 2.606-.98 4.063 4.063 0 0 1-1.804 2.235A8.305 8.305 0 0 0 22 5.895a8.225 8.225 0 0 1-2.05 2.087z" fill="currentColor" fill-rule="evenodd"/></symbol><symbol id="undo" viewBox="0 0 24 24"><path d="M7 10.5V7h8c3.307 0 6 2.69 6 6 0 3.307-2.693 6-6 6H3.5a.5.5 0 1 0 0 1H15c3.86 0 7-3.142 7-7 0-3.86-3.14-7-7-7H7V2.5a.496.496 0 0 0-.691-.461.499.499 0 0 0-.164.107l-3.999 4a.499.499 0 0 0-.108.544.499.499 0 0 0 .108.163l4 4a.499.499 0 0 0 .544.107.496.496 0 0 0 .31-.46" fill="currentColor" fill-rule="evenodd"/></symbol><symbol id="unlock" viewBox="0 0 24 24"><path d="M18.389 19.788c0 .754-.608 1.367-1.355 1.367h-9.07c-.759 0-1.353-.593-1.355-1.391l-.781-8.247c0-.757.594-1.348 1.353-1.348h10.636c.76 0 1.354.589 1.355 1.3l-.783 8.32zm-.572-10.464h-1.173v-3.35c0-2.155-1.9-3.974-4.147-3.974C10.249 2 8.35 3.82 8.35 5.974c0 .235.185.423.415.423a.418.418 0 0 0 .414-.423c0-1.696 1.52-3.129 3.318-3.129 1.797 0 3.317 1.433 3.317 3.13v3.349H7.181c-1.203 0-2.183.983-2.181 2.233l.781 8.247c0 1.21.979 2.196 2.183 2.196h9.07c1.204 0 2.184-.992 2.182-2.171l.784-8.32a2.162 2.162 0 0 0-2.183-2.185zm-4.67 8.294h-1.09l-.293-2.485c0-.46.375-.834.836-.834.47 0 .838.362.841.776l-.295 2.543zm-.547-4.16c-.907 0-1.644.75-1.641 1.726l.34 2.905a.409.409 0 0 0 .4.37h1.805a.41.41 0 0 0 .401-.37l.342-2.964c0-.92-.739-1.667-1.647-1.667z" fill="currentColor" fill-rule="evenodd"/></symbol><symbol id="upload" viewBox="0 0 24 24"><path d="M15.333 12.667a.348.348 0 0 0-.093-.24L11.573 8.76a.33.33 0 0 0-.24-.093.348.348 0 0 0-.24.093l-3.655 3.657a.384.384 0 0 0-.105.25.33.33 0 0 0 .334.333H10v3.667c0 .177.156.333.333.333h2a.343.343 0 0 0 .334-.333V13H15a.336.336 0 0 0 .333-.333zm6.667 3c0 2.208-1.792 4-4 4H6.667A4.672 4.672 0 0 1 2 15a4.654 4.654 0 0 1 2.688-4.219c-.01-.156-.021-.302-.021-.448A5.33 5.33 0 0 1 10 5a5.342 5.342 0 0 1 4.938 3.313 2.636 2.636 0 0 1 1.729-.646 2.672 2.672 0 0 1 2.666 2.666c0 .51-.145 1.01-.427 1.438A4.009 4.009 0 0 1 22 15.667z" fill="currentColor" fill-rule="evenodd"/></symbol><symbol id="user-o" viewBox="0 0 24 24"><path d="M12 2.8c-2.388 0-3.703 1.199-3.703 3.376v2.172a.4.4 0 0 1-.09.252 1.172 1.172 0 0 0 .224 1.698.4.4 0 0 1 .155.22c.28.999.746 1.853 1.347 2.47a.4.4 0 0 1 .114.279v.97a.4.4 0 0 1-.018.118c-.114.369-.508.922-2.557 1.94-1.115.553-2.584 1.18-4.492 1.918a.293.293 0 0 0-.18.273v2.425c0 .16.126.289.28.289h17.838c.155 0 .282-.13.282-.29v-2.424a.293.293 0 0 0-.182-.273c-5.858-2.265-6.85-3.22-7.048-3.857a.4.4 0 0 1-.018-.12v-.97a.4.4 0 0 1 .114-.279c.6-.614 1.066-1.468 1.347-2.47a.4.4 0 0 1 .155-.22 1.173 1.173 0 0 0 .223-1.7.4.4 0 0 1-.09-.25V6.175c0-2.209-1.28-3.376-3.701-3.376M20.918 22H3.08C2.485 22 2 21.511 2 20.91v-2.424a1.1 1.1 0 0 1 .69-1.018c1.886-.73 3.333-1.347 4.426-1.89 1.69-.84 2.053-1.276 2.13-1.419v-.733c-.613-.671-1.092-1.552-1.393-2.564a1.974 1.974 0 0 1-.356-2.647v-2.04c0-1.248.39-2.29 1.13-3.013C9.414 2.39 10.549 2 12 2c1.48 0 2.624.392 3.402 1.164.73.724 1.1 1.737 1.1 3.012v2.037a1.971 1.971 0 0 1-.356 2.65c-.303 1.013-.782 1.894-1.394 2.563v.733c.077.143.441.58 2.131 1.42 1.09.54 2.537 1.158 4.423 1.888.415.16.694.57.694 1.019v2.425c0 .6-.485 1.089-1.082 1.089" fill="currentColor" fill-rule="evenodd"/></symbol><symbol id="user" viewBox="0 0 24 24"><path d="M21.544 18.083c-3.22-1.245-6.795-2.79-7.094-3.753v-1.01c.668-.684 1.193-1.636 1.506-2.752a1.64 1.64 0 0 0 .316-2.374v-2.26C16.272 3.598 14.972 2 12 2 9.105 2 7.726 3.6 7.726 5.933v2.263a1.64 1.64 0 0 0 .316 2.372c.313 1.116.84 2.068 1.507 2.752v1.01c-.298.962-3.873 2.508-7.095 3.753a.722.722 0 0 0-.454.673v2.526c0 .396.316.718.709.718h18.58a.715.715 0 0 0 .711-.718v-2.526a.722.722 0 0 0-.456-.673" fill="currentColor" fill-rule="evenodd"/></symbol><symbol id="users" viewBox="0 0 24 24"><path d="M8.177 12.333a3.687 3.687 0 0 0-2.76 1.334H4.02c-1.042 0-2.02-.5-2.02-1.657 0-.843-.032-3.677 1.29-3.677.22 0 1.303.886 2.709.886.48 0 .938-.084 1.385-.24a5.09 5.09 0 0 0-.052.688c0 .948.302 1.885.844 2.666zm11.156 6.636c0 1.687-1.114 2.698-2.78 2.698H7.447c-1.667 0-2.781-1.01-2.781-2.698 0-2.355.552-5.97 3.604-5.97.354 0 1.646 1.449 3.729 1.449S15.375 13 15.73 13c3.051 0 3.603 3.614 3.603 5.969zM8.667 5.667A2.672 2.672 0 0 1 6 8.333a2.672 2.672 0 0 1-2.667-2.666A2.672 2.672 0 0 1 6 3a2.672 2.672 0 0 1 2.667 2.667zm7.333 4a4.001 4.001 0 0 1-8 0 4.001 4.001 0 0 1 8 0zm6 2.343c0 1.157-.98 1.657-2.02 1.657h-1.397a3.687 3.687 0 0 0-2.76-1.334 4.708 4.708 0 0 0 .844-2.666c0-.23-.021-.459-.052-.688.447.156.906.24 1.385.24 1.406 0 2.49-.886 2.708-.886 1.323 0 1.292 2.834 1.292 3.677zm-1.333-6.343A2.672 2.672 0 0 1 18 8.333a2.672 2.672 0 0 1-2.667-2.666A2.672 2.672 0 0 1 18 3a2.672 2.672 0 0 1 2.667 2.667z" fill="currentColor" fill-rule="evenodd"/></symbol><symbol id="video-off" viewBox="0 0 24 24"><path d="m20.031 4 .707.707-5.37 5.37c.033.102.05.212.05.325v.65l2.616-1.36c.65-.315 1.35.182 1.35.886v5.552c0 .703-.7 1.2-1.35.885l-2.616-1.36v.65c0 .57-.438 1.049-1.002 1.049H8.387a.969.969 0 0 1-.259-.035l-3.42 3.42L4 20.03l3.427-3.426a1.094 1.094 0 0 1-.042-.3v-5.903c0-.57.438-1.048 1.002-1.048h6.03c.08 0 .158.01.233.028L20.03 4zm-1.646 6.637L14.418 12.7v-1.672l-5.326 5.326h5.324c-.01 0 .002-.012.002-.048V14.01l.73.38 3.237 1.681v-5.433zm-4.707-.284H8.387c.009 0-.002.013-.002.049l-.001 5.245 5.294-5.294z" fill="currentColor"/></symbol><symbol id="visible-o" viewBox="0 0 24 24"><path d="M2.604 12.34a17.235 17.235 0 0 0 2.374 3.227c2.045 2.181 4.397 3.478 7.022 3.478s4.977-1.297 7.022-3.478a17.235 17.235 0 0 0 2.411-3.294 15.374 15.374 0 0 0-.52-.865 17.235 17.235 0 0 0-1.891-2.43C16.977 6.798 14.625 5.5 12 5.5S7.023 6.797 4.978 8.978a17.235 17.235 0 0 0-2.411 3.295l.037.067zm-1.051-.29a7.96 7.96 0 0 1 .18-.335 18.224 18.224 0 0 1 2.516-3.42C6.466 5.93 9.057 4.5 12 4.5c2.943 0 5.534 1.43 7.751 3.794a18.224 18.224 0 0 1 2.516 3.421c.088.157.148.27.18.334a.5.5 0 0 1 0 .447 8.465 8.465 0 0 1-.18.334 18.224 18.224 0 0 1-2.516 3.42c-2.217 2.366-4.808 3.795-7.751 3.795-2.943 0-5.534-1.43-7.751-3.794a18.224 18.224 0 0 1-2.516-3.42 8.465 8.465 0 0 1-.18-.335.5.5 0 0 1 0-.447zM12 15.5a3.227 3.227 0 1 1 0-6.455 3.227 3.227 0 0 1 0 6.455zm0-1a2.227 2.227 0 1 0 0-4.455 2.227 2.227 0 0 0 0 4.455z" fill="currentColor"/></symbol><symbol id="visible" viewBox="0 0 24 24"><path d="M12 5c4.266 0 7.99 2.713 10 6.75-2.01 4.037-5.734 6.75-10 6.75s-7.99-2.713-10-6.75C4.01 7.713 7.734 5 12 5zm0 3.117c-1.95 0-3.535 1.624-3.535 3.633 0 2.008 1.585 3.632 3.535 3.632 1.95 0 3.534-1.624 3.534-3.632 0-2.009-1.585-3.633-3.534-3.633zm0 1.954c.905 0 1.638.752 1.638 1.679s-.733 1.678-1.638 1.678c-.905 0-1.638-.751-1.638-1.678 0-.927.733-1.679 1.638-1.679z" fill="currentColor" fill-rule="evenodd"/></symbol><symbol id="voiceinput-off" viewBox="0 0 24 24"><path d="M10.187 21.149V22H5.643v-.851h4.544zM7.92 7.076c2.138-.02 3.834 1.307 3.834 3.435v6.442c0 2.12-1.697 3.448-3.833 3.432-2.125-.016-3.826-1.356-3.826-3.432v-6.442c0-2.073 1.702-3.416 3.825-3.435zm2.983 3.435c0-1.605-1.272-2.6-2.975-2.584-1.696.015-2.982 1.03-2.982 2.584v6.442c0 1.556 1.285 2.568 2.982 2.581 1.702.013 2.975-.984 2.975-2.58V10.51zm-2.519 9.361v1.702h-.851v-1.702h.851zM17.255 2a4.408 4.408 0 0 1 2.45.886.419.419 0 0 1 .407.348 4.362 4.362 0 0 1 1.343 3.34 4.502 4.502 0 0 1-3.358 4.496l-3.534 2.975a.426.426 0 0 1-.7-.326v-2.434h-.595a.426.426 0 0 1-.41-.54l-5.295 5.297h3.765v.852l-4.616-.001-3.986 3.987a.426.426 0 0 1-.535.054l-.066-.054a.426.426 0 0 1 0-.602l3.383-3.385h-.836v-.85l1.687-.001 8.162-8.162h-1.866a.426.426 0 0 1-.418-.348l-.007-.077c0-.235.19-.425.425-.425h2.477a.43.43 0 0 1 .193.046l.898-.898h-3.568a.426.426 0 0 1-.418-.348l-.007-.077c0-.235.19-.425.425-.425l4.419-.001 1.91-1.91a3.507 3.507 0 0 0-1.557-.551l-.193-.015h-3.84a3.48 3.48 0 0 0-3.33 3.033.426.426 0 1 1-.843-.109A4.335 4.335 0 0 1 13.379 2zm2.385 1.967L18.006 5.6a.425.425 0 0 1-.397.578l-.182-.001-4.272 4.271a.423.423 0 0 1 .037-.008l.076-.007h1.021c.235 0 .426.19.426.426v1.945l2.909-2.45a.426.426 0 0 1 .175-.088 3.662 3.662 0 0 0 2.806-3.698 3.564 3.564 0 0 0-.965-2.602z" fill="currentColor"/></symbol><symbol id="voiceinput" viewBox="0 0 24 24"><path d="M9.094 21.149V22H4.549v-.851h4.545zM6.826 7.076c2.137-.02 3.834 1.307 3.834 3.435v6.442c0 2.12-1.697 3.448-3.833 3.432C4.702 20.37 3 19.03 3 16.953v-6.442c0-2.073 1.702-3.416 3.826-3.435zm2.983 3.435c0-1.605-1.273-2.6-2.975-2.584-1.696.015-2.983 1.03-2.983 2.584v6.442c0 1.556 1.285 2.568 2.982 2.581 1.702.013 2.976-.984 2.976-2.58V10.51zm-2.554 9.33v1.702h-.85v-1.702h.85zm2.979-3.798v.85H3.579v-.85h6.655zM16.161 2c2.43.117 4.307 2.176 4.2 4.574a4.502 4.502 0 0 1-3.358 4.496l-3.533 2.975a.426.426 0 0 1-.7-.326v-2.434h-.596a.426.426 0 1 1 0-.851h1.022c.235 0 .425.19.425.426v1.945l2.91-2.45a.426.426 0 0 1 .175-.088 3.662 3.662 0 0 0 2.805-3.698c.086-1.962-1.43-3.624-3.37-3.718H12.3a3.48 3.48 0 0 0-3.33 3.033.426.426 0 1 1-.844-.109A4.335 4.335 0 0 1 12.285 2zm-2.123 5.03a.426.426 0 1 1 0 .85h-2.476a.426.426 0 1 1 0-.85zm2.468-1.702a.426.426 0 1 1 0 .85h-4.944a.426.426 0 1 1 0-.85z" fill="currentColor"/></symbol><symbol id="wall" viewBox="0 0 24 24"><path d="M19.5 8h-4a.5.5 0 0 1 0-1h4a.5.5 0 0 1 0 1m0 4h-4a.5.5 0 0 1 0-1h4a.5.5 0 0 1 0 1m0 4h-4a.5.5 0 0 1 0-1h4a.5.5 0 0 1 0 1m1.5 3a1 1 0 0 1-1 1h-6V4.003l6 .002c.552 0 1 .449 1 1V19zM4 20c-.551 0-1-.448-1-1V5c0-.551.449-1 1-1l9 .003V20H4zM20 3.005 4 3c-1.1 0-2 .9-2 2v14c0 1.1.9 2 2 2h16c1.1 0 2-.9 2-2V5.005c0-1.1-.9-2-2-2z" fill="currentColor" fill-rule="evenodd"/></symbol><symbol id="warning" viewBox="0 0 24 24"><path d="M13.427 18.287v-2.112a.354.354 0 0 0-.106-.262.343.343 0 0 0-.25-.105H10.93a.343.343 0 0 0-.251.105.354.354 0 0 0-.106.262v2.112c0 .104.035.19.106.261.07.07.154.106.25.106h2.141c.097 0 .18-.035.251-.106a.354.354 0 0 0 .106-.261zm-.022-4.158.2-5.103a.245.245 0 0 0-.111-.211c-.097-.082-.186-.123-.268-.123h-2.452c-.082 0-.171.041-.268.123-.074.051-.111.13-.111.233l.19 5.08c0 .075.036.136.11.184a.481.481 0 0 0 .268.073h2.063a.454.454 0 0 0 .262-.073.247.247 0 0 0 .117-.183zm-.156-10.384 8.561 15.654c.26.467.253.934-.022 1.4-.126.216-.3.386-.518.512-.22.126-.456.189-.708.189H3.438c-.252 0-.488-.063-.708-.189a1.399 1.399 0 0 1-.518-.511c-.275-.467-.282-.934-.022-1.401l8.56-15.654a1.421 1.421 0 0 1 2.498 0z" fill="currentColor" fill-rule="evenodd"/></symbol><symbol id="webcam" viewBox="0 0 24 24"><path d="M14.988 7c.666 0 1.179.53 1.179 1.194v8.423c0 .665-.514 1.216-1.18 1.216H3.15c-.667 0-1.15-.548-1.15-1.216V8.194C2 7.527 2.484 7 3.15 7h11.838zm0 .833H3.15c-.19 0-.317.14-.317.36v8.424c0 .23.136.383.317.383h11.838c.191 0 .345-.165.345-.383V8.194c0-.21-.146-.36-.345-.36zm5.49.18.024-.01C21.2 7.712 22 8.21 22 8.939v6.934c0 .729-.811 1.229-1.538.924l-4.478-2.217c-.384-.161-.65-.526-.65-.934v-2.48c0-.41.27-.774.63-.925l4.514-2.227zM16.31 11c-.089.038-.143.111-.143.167v2.48c0 .057.053.13.163.177l4.478 2.216c.167.07.359-.048.359-.166V8.939c0-.118-.176-.23-.335-.17l-4.522 2.23z" fill="currentColor"/></symbol><symbol id="zoom-actual" viewBox="0 0 24 24"><path d="M20.854 20.854a.5.5 0 0 1-.707 0l-5.716-5.716a7.61 7.61 0 0 0 .707-.707l5.716 5.716a.5.5 0 0 1 0 .707M3 9.5C3 5.916 5.916 3 9.5 3S16 5.916 16 9.5 13.084 16 9.5 16A6.508 6.508 0 0 1 3 9.5m18.561 9.94-5.793-5.793-.068.068A7.454 7.454 0 0 0 17 9.5C17 5.365 13.636 2 9.5 2 5.365 2 2 5.365 2 9.5 2 13.636 5.365 17 9.5 17c1.562 0 3.013-.48 4.215-1.3l-.068.068 5.793 5.793a1.497 1.497 0 0 0 2.121 0 1.501 1.501 0 0 0 0-2.121M9.961 6.31a.497.497 0 0 0-.814-.162l-1.5 1.499a.5.5 0 0 0 .707.707L9 7.708V12.5a.5.5 0 1 0 1 0v-6a.506.506 0 0 0-.04-.191" fill="currentColor" fill-rule="evenodd"/></symbol><symbol id="zoom-in" viewBox="0 0 24 24"><path d="M20.854 20.854a.5.5 0 0 1-.707 0l-5.716-5.716a7.61 7.61 0 0 0 .707-.707l5.716 5.716a.5.5 0 0 1 0 .707M9.5 16A6.508 6.508 0 0 1 3 9.5C3 5.916 5.916 3 9.5 3S16 5.916 16 9.5 13.084 16 9.5 16m12.061 3.44-5.793-5.793-.068.068A7.454 7.454 0 0 0 17 9.5C17 5.365 13.636 2 9.5 2 5.365 2 2 5.365 2 9.5 2 13.636 5.365 17 9.5 17c1.562 0 3.013-.48 4.215-1.3l-.068.068 5.793 5.793a1.497 1.497 0 0 0 2.121 0 1.501 1.501 0 0 0 0-2.121M12.501 9H10V6.5a.5.5 0 0 0-1 0V9H6.5a.5.5 0 0 0 0 1H9v2.5a.5.5 0 0 0 1 0V10h2.5a.5.5 0 0 0 0-1" fill="currentColor" fill-rule="evenodd"/></symbol><symbol id="zoom-out" viewBox="0 0 24 24"><path d="M20.854 20.854a.5.5 0 0 1-.707 0l-5.716-5.716a7.61 7.61 0 0 0 .707-.707l5.716 5.716a.5.5 0 0 1 0 .707M3 9.5C3 5.916 5.916 3 9.5 3S16 5.916 16 9.5 13.084 16 9.5 16A6.508 6.508 0 0 1 3 9.5m18.561 9.94-5.793-5.793-.068.068A7.454 7.454 0 0 0 17 9.5C17 5.365 13.636 2 9.5 2 5.365 2 2 5.365 2 9.5 2 13.636 5.365 17 9.5 17c1.562 0 3.013-.48 4.215-1.3l-.068.068 5.793 5.793a1.497 1.497 0 0 0 2.121 0 1.501 1.501 0 0 0 0-2.121M12.501 9h-6a.5.5 0 0 0 0 1h6a.5.5 0 0 0 0-1" fill="currentColor" fill-rule="evenodd"/></symbol></defs></svg>